<svg width="20" height="20" viewBox="0 0 20 20" fill="none" xmlns="http://www.w3.org/2000/svg">
<path d="M12.3576 11.0886C12.8354 10.7225 13.1865 10.216 13.3615 9.64012C13.5366 9.06425 13.5268 8.44802 13.3335 7.87801C13.1403 7.308 12.7733 6.81287 12.2841 6.46219C11.7949 6.11152 11.2082 5.92293 10.6063 5.92293C10.0044 5.92293 9.41767 6.11152 8.9285 6.46219C8.43934 6.81287 8.07234 7.308 7.87909 7.87801C7.68584 8.44802 7.67605 9.06425 7.85109 9.64012C8.02614 10.216 8.37722 10.7225 8.855 11.0886C7.95851 11.4234 7.17741 12.0093 6.60505 12.7762C6.5327 12.8727 6.50163 12.9939 6.51869 13.1133C6.53574 13.2327 6.59952 13.3404 6.69599 13.4128C6.79246 13.4851 6.91373 13.5162 7.03311 13.4991C7.15248 13.4821 7.2602 13.4183 7.33255 13.3218C7.71373 12.8136 8.208 12.4011 8.77622 12.117C9.34444 11.8329 9.97101 11.685 10.6063 11.685C11.2416 11.685 11.8682 11.8329 12.4364 12.117C13.0046 12.4011 13.4989 12.8136 13.88 13.3218C13.9524 13.4183 14.0601 13.4821 14.1795 13.4991C14.2989 13.5162 14.4201 13.4851 14.5166 13.4128C14.6131 13.3404 14.6769 13.2327 14.6939 13.1133C14.711 12.9939 14.6799 12.8727 14.6075 12.7762C14.0352 12.0093 13.2541 11.4234 12.3576 11.0886ZM8.63599 8.80527C8.63599 8.41558 8.75155 8.03464 8.96805 7.71062C9.18455 7.38661 9.49227 7.13407 9.8523 6.98494C10.2123 6.83581 10.6085 6.79679 10.9907 6.87282C11.3729 6.94884 11.724 7.1365 11.9995 7.41205C12.2751 7.6876 12.4627 8.03868 12.5388 8.42088C12.6148 8.80308 12.5758 9.19925 12.4266 9.55927C12.2775 9.9193 12.025 10.227 11.7009 10.4435C11.3769 10.66 10.996 10.7756 10.6063 10.7756C10.0837 10.7756 9.58259 10.568 9.21308 10.1985C8.84358 9.82898 8.63599 9.32783 8.63599 8.80527ZM16.0625 2.28809H5.15006C4.86868 2.28809 4.59882 2.39986 4.39986 2.59883C4.2009 2.79779 4.08912 3.06764 4.08912 3.34902V5.31933H2.72506C2.60447 5.31933 2.48882 5.36724 2.40355 5.45251C2.31827 5.53778 2.27037 5.65343 2.27037 5.77402C2.27037 5.89461 2.31827 6.01026 2.40355 6.09553C2.48882 6.1808 2.60447 6.22871 2.72506 6.22871H4.08912V9.56308H2.72506C2.60447 9.56308 2.48882 9.61098 2.40355 9.69626C2.31827 9.78153 2.27037 9.89718 2.27037 10.0178C2.27037 10.1384 2.31827 10.254 2.40355 10.3393C2.48882 10.4246 2.60447 10.4725 2.72506 10.4725H4.08912V13.8068H2.72506C2.60447 13.8068 2.48882 13.8547 2.40355 13.94C2.31827 14.0253 2.27037 14.1409 2.27037 14.2615C2.27037 14.3821 2.31827 14.4978 2.40355 14.583C2.48882 14.6683 2.60447 14.7162 2.72506 14.7162H4.08912V16.6865C4.08912 16.9679 4.2009 17.2377 4.39986 17.4367C4.59882 17.6357 4.86868 17.7474 5.15006 17.7474H16.0625C16.3439 17.7474 16.6138 17.6357 16.8127 17.4367C17.0117 17.2377 17.1235 16.9679 17.1235 16.6865V3.34902C17.1235 3.06764 17.0117 2.79779 16.8127 2.59883C16.6138 2.39986 16.3439 2.28809 16.0625 2.28809ZM16.2141 16.6865C16.2141 16.7267 16.1981 16.7653 16.1697 16.7937C16.1413 16.8221 16.1027 16.8381 16.0625 16.8381H5.15006C5.10986 16.8381 5.07131 16.8221 5.04288 16.7937C5.01446 16.7653 4.99849 16.7267 4.99849 16.6865V3.34902C4.99849 3.30883 5.01446 3.27028 5.04288 3.24185C5.07131 3.21343 5.10986 3.19746 5.15006 3.19746H16.0625C16.1027 3.19746 16.1413 3.21343 16.1697 3.24185C16.1981 3.27028 16.2141 3.30883 16.2141 3.34902V16.6865Z" fill="#5A0001"/>
</svg>
