<svg width="28" height="24" viewBox="0 0 28 24" fill="none" xmlns="http://www.w3.org/2000/svg">
<path d="M6.125 11.25H23.625C23.8571 11.25 24.0796 11.329 24.2437 11.4697C24.4078 11.6103 24.5 11.8011 24.5 12C24.5 12.1989 24.4078 12.3897 24.2437 12.5303C24.0796 12.671 23.8571 12.75 23.625 12.75H6.125C5.89294 12.75 5.67038 12.671 5.50628 12.5303C5.34219 12.3897 5.25 12.1989 5.25 12C5.25 11.8011 5.34219 11.6103 5.50628 11.4697C5.67038 11.329 5.89294 11.25 6.125 11.25Z" fill="black"/>
<path d="M6.48686 12L13.7441 18.219C13.9084 18.3598 14.0007 18.5508 14.0007 18.75C14.0007 18.9492 13.9084 19.1402 13.7441 19.281C13.5798 19.4218 13.357 19.5009 13.1246 19.5009C12.8923 19.5009 12.6694 19.4218 12.5051 19.281L4.63011 12.531C4.54863 12.4613 4.48398 12.3786 4.43986 12.2875C4.39575 12.1963 4.37305 12.0987 4.37305 12C4.37305 11.9014 4.39575 11.8037 4.43986 11.7126C4.48398 11.6214 4.54863 11.5387 4.63011 11.469L12.5051 4.719C12.6694 4.57817 12.8923 4.49905 13.1246 4.49905C13.357 4.49905 13.5798 4.57817 13.7441 4.719C13.9084 4.85983 14.0007 5.05084 14.0007 5.25C14.0007 5.44916 13.9084 5.64017 13.7441 5.781L6.48686 12Z" fill="black"/>
</svg>
