<svg width="40" height="40" viewBox="0 0 40 40" fill="none" xmlns="http://www.w3.org/2000/svg">
<path d="M24.8609 22.2078C25.8461 21.4531 26.5699 20.4087 26.9308 19.2213C27.2918 18.034 27.2716 16.7634 26.8731 15.5881C26.4747 14.4128 25.718 13.3919 24.7094 12.6689C23.7008 11.9459 22.491 11.557 21.25 11.557C20.009 11.557 18.7992 11.9459 17.7906 12.6689C16.782 13.3919 16.0253 14.4128 15.6269 15.5881C15.2284 16.7634 15.2082 18.034 15.5692 19.2213C15.9301 20.4087 16.6539 21.4531 17.6391 22.2078C15.7906 22.8981 14.1801 24.1062 13 25.6875C12.8508 25.8864 12.7868 26.1364 12.8219 26.3826C12.8571 26.6287 12.9886 26.8508 13.1875 27C13.3864 27.1492 13.6364 27.2132 13.8826 27.1781C14.1287 27.1429 14.3508 27.0114 14.5 26.8125C15.2859 25.7646 16.305 24.9141 17.4766 24.3283C18.6482 23.7425 19.9401 23.4375 21.25 23.4375C22.5599 23.4375 23.8518 23.7425 25.0234 24.3283C26.195 24.9141 27.2141 25.7646 28 26.8125C28.1492 27.0114 28.3713 27.1429 28.6174 27.1781C28.8636 27.2132 29.1136 27.1492 29.3125 27C29.5114 26.8508 29.6429 26.6287 29.6781 26.3826C29.7132 26.1364 29.6492 25.8864 29.5 25.6875C28.3199 24.1062 26.7094 22.8981 24.8609 22.2078ZM17.1875 17.5C17.1875 16.6965 17.4258 15.9111 17.8722 15.243C18.3185 14.5749 18.953 14.0542 19.6953 13.7467C20.4377 13.4393 21.2545 13.3588 22.0426 13.5156C22.8306 13.6723 23.5545 14.0592 24.1226 14.6274C24.6908 15.1955 25.0777 15.9194 25.2344 16.7074C25.3912 17.4955 25.3107 18.3123 25.0033 19.0547C24.6958 19.797 24.1751 20.4315 23.507 20.8778C22.8389 21.3242 22.0535 21.5625 21.25 21.5625C20.1726 21.5625 19.1392 21.1345 18.3774 20.3726C17.6155 19.6108 17.1875 18.5774 17.1875 17.5ZM32.5 4.0625H10C9.41984 4.0625 8.86344 4.29297 8.4532 4.7032C8.04297 5.11344 7.8125 5.66984 7.8125 6.25V10.3125H5C4.75136 10.3125 4.5129 10.4113 4.33709 10.5871C4.16127 10.7629 4.0625 11.0014 4.0625 11.25C4.0625 11.4986 4.16127 11.7371 4.33709 11.9129C4.5129 12.0887 4.75136 12.1875 5 12.1875H7.8125V19.0625H5C4.75136 19.0625 4.5129 19.1613 4.33709 19.3371C4.16127 19.5129 4.0625 19.7514 4.0625 20C4.0625 20.2486 4.16127 20.4871 4.33709 20.6629C4.5129 20.8387 4.75136 20.9375 5 20.9375H7.8125V27.8125H5C4.75136 27.8125 4.5129 27.9113 4.33709 28.0871C4.16127 28.2629 4.0625 28.5014 4.0625 28.75C4.0625 28.9986 4.16127 29.2371 4.33709 29.4129C4.5129 29.5887 4.75136 29.6875 5 29.6875H7.8125V33.75C7.8125 34.3302 8.04297 34.8866 8.4532 35.2968C8.86344 35.707 9.41984 35.9375 10 35.9375H32.5C33.0802 35.9375 33.6366 35.707 34.0468 35.2968C34.457 34.8866 34.6875 34.3302 34.6875 33.75V6.25C34.6875 5.66984 34.457 5.11344 34.0468 4.7032C33.6366 4.29297 33.0802 4.0625 32.5 4.0625ZM32.8125 33.75C32.8125 33.8329 32.7796 33.9124 32.721 33.971C32.6624 34.0296 32.5829 34.0625 32.5 34.0625H10C9.91712 34.0625 9.83763 34.0296 9.77903 33.971C9.72042 33.9124 9.6875 33.8329 9.6875 33.75V6.25C9.6875 6.16712 9.72042 6.08763 9.77903 6.02903C9.83763 5.97042 9.91712 5.9375 10 5.9375H32.5C32.5829 5.9375 32.6624 5.97042 32.721 6.02903C32.7796 6.08763 32.8125 6.16712 32.8125 6.25V33.75Z" fill="white"/>
</svg>
