<svg width="50" height="50" viewBox="0 0 50 50" fill="none" xmlns="http://www.w3.org/2000/svg">
<path d="M6.25 37.5H21.875V40.625H6.25V37.5ZM6.25 28.125H21.875V31.25H6.25V28.125ZM40.625 21.875H9.375C8.5462 21.875 7.75134 21.5458 7.16529 20.9597C6.57924 20.3737 6.25 19.5788 6.25 18.75V9.375C6.25 8.5462 6.57924 7.75134 7.16529 7.16529C7.75134 6.57924 8.5462 6.25 9.375 6.25H40.625C41.4538 6.25 42.2487 6.57924 42.8347 7.16529C43.4208 7.75134 43.75 8.5462 43.75 9.375V18.75C43.75 19.5788 43.4208 20.3737 42.8347 20.9597C42.2487 21.5458 41.4538 21.875 40.625 21.875ZM9.375 9.375V18.75H40.625V9.375H9.375ZM40.625 43.75H31.25C30.4212 43.75 29.6263 43.4208 29.0403 42.8347C28.4542 42.2487 28.125 41.4538 28.125 40.625V31.25C28.125 30.4212 28.4542 29.6263 29.0403 29.0403C29.6263 28.4542 30.4212 28.125 31.25 28.125H40.625C41.4538 28.125 42.2487 28.4542 42.8347 29.0403C43.4208 29.6263 43.75 30.4212 43.75 31.25V40.625C43.75 41.4538 43.4208 42.2487 42.8347 42.8347C42.2487 43.4208 41.4538 43.75 40.625 43.75ZM31.25 31.25V40.625H40.625V31.25H31.25Z" fill="#5A0001"/>
</svg>
