<svg width="86" height="64" viewBox="0 0 86 64" fill="none" xmlns="http://www.w3.org/2000/svg">
<mask id="path-1-inside-1_425_5408" fill="white">
<path d="M15.9275 45.863C15.4147 46.1318 14.7793 45.9346 14.5277 45.4131C12.2607 40.7148 11.1875 35.5236 11.4114 30.3009C11.6502 24.7286 13.3569 19.3184 16.3588 14.6179C19.3607 9.91731 23.5512 6.09328 28.5061 3.53288C33.461 0.972479 39.0044 -0.2334 44.5751 0.0373119C50.1459 0.308024 55.5463 2.04572 60.2296 5.07449C64.9128 8.10325 68.7128 12.3156 71.2448 17.2851C73.7768 22.2545 74.9509 27.8048 74.6483 33.3739C74.3646 38.5937 72.7932 43.6564 70.0813 48.1127C69.7803 48.6074 69.1288 48.742 68.6444 48.4248V48.4248C68.16 48.1076 68.0262 47.4586 68.3261 46.9633C70.8362 42.8166 72.2909 38.111 72.5545 33.2601C72.8371 28.0599 71.7407 22.8773 69.3765 18.237C67.0122 13.5967 63.4639 9.66336 59.0909 6.83521C54.7178 4.00706 49.6751 2.38447 44.4734 2.13169C39.2716 1.87891 34.0954 3.00491 29.4687 5.39572C24.842 7.78652 20.9291 11.3573 18.126 15.7465C15.323 20.1357 13.7293 25.1875 13.5063 30.3906C13.2983 35.2442 14.2899 40.0687 16.3861 44.4393C16.6365 44.9614 16.4404 45.5943 15.9275 45.863V45.863Z"/>
</mask>
<path d="M15.9275 45.863C15.4147 46.1318 14.7793 45.9346 14.5277 45.4131C12.2607 40.7148 11.1875 35.5236 11.4114 30.3009C11.6502 24.7286 13.3569 19.3184 16.3588 14.6179C19.3607 9.91731 23.5512 6.09328 28.5061 3.53288C33.461 0.972479 39.0044 -0.2334 44.5751 0.0373119C50.1459 0.308024 55.5463 2.04572 60.2296 5.07449C64.9128 8.10325 68.7128 12.3156 71.2448 17.2851C73.7768 22.2545 74.9509 27.8048 74.6483 33.3739C74.3646 38.5937 72.7932 43.6564 70.0813 48.1127C69.7803 48.6074 69.1288 48.742 68.6444 48.4248V48.4248C68.16 48.1076 68.0262 47.4586 68.3261 46.9633C70.8362 42.8166 72.2909 38.111 72.5545 33.2601C72.8371 28.0599 71.7407 22.8773 69.3765 18.237C67.0122 13.5967 63.4639 9.66336 59.0909 6.83521C54.7178 4.00706 49.6751 2.38447 44.4734 2.13169C39.2716 1.87891 34.0954 3.00491 29.4687 5.39572C24.842 7.78652 20.9291 11.3573 18.126 15.7465C15.323 20.1357 13.7293 25.1875 13.5063 30.3906C13.2983 35.2442 14.2899 40.0687 16.3861 44.4393C16.6365 44.9614 16.4404 45.5943 15.9275 45.863V45.863Z" fill="#5A0001" stroke="#5A0001" stroke-width="0.386052" mask="url(#path-1-inside-1_425_5408)"/>
<mask id="path-2-inside-2_425_5408" fill="white">
<path d="M24.6265 45.0179C24.2165 45.3111 23.6449 45.2174 23.3677 44.7963C21.0376 41.2562 19.7029 37.1474 19.513 32.9022C19.3094 28.3527 20.4293 23.8417 22.7371 19.9157C25.045 15.9897 28.4417 12.8171 32.5158 10.7821C36.5899 8.74713 41.1667 7.93714 45.6918 8.45023C50.2169 8.96333 54.4961 10.7775 58.0112 13.673C61.5263 16.5685 64.1264 20.4211 65.4966 24.7641C66.8668 29.1072 66.9483 33.7544 65.7313 38.1428C64.5957 42.2377 62.3749 45.9434 59.3113 48.8719C58.9469 49.2202 58.3688 49.1836 58.0348 48.806V48.806C57.7009 48.4284 57.7378 47.853 58.101 47.5035C60.9007 44.8096 62.931 41.4097 63.9723 37.655C65.095 33.6067 65.0198 29.3198 63.7558 25.3133C62.4918 21.3069 60.0932 17.753 56.8506 15.0819C53.608 12.4108 49.6605 10.7373 45.4861 10.264C41.3118 9.79067 37.0898 10.5379 33.3315 12.4151C29.5731 14.2923 26.4397 17.219 24.3108 20.8407C22.1818 24.4624 21.1487 28.6237 21.3365 32.8206C21.5107 36.7131 22.7282 40.4813 24.8537 43.7336C25.1294 44.1556 25.0365 44.7247 24.6265 45.0179V45.0179Z"/>
</mask>
<path d="M24.6265 45.0179C24.2165 45.3111 23.6449 45.2174 23.3677 44.7963C21.0376 41.2562 19.7029 37.1474 19.513 32.9022C19.3094 28.3527 20.4293 23.8417 22.7371 19.9157C25.045 15.9897 28.4417 12.8171 32.5158 10.7821C36.5899 8.74713 41.1667 7.93714 45.6918 8.45023C50.2169 8.96333 54.4961 10.7775 58.0112 13.673C61.5263 16.5685 64.1264 20.4211 65.4966 24.7641C66.8668 29.1072 66.9483 33.7544 65.7313 38.1428C64.5957 42.2377 62.3749 45.9434 59.3113 48.8719C58.9469 49.2202 58.3688 49.1836 58.0348 48.806V48.806C57.7009 48.4284 57.7378 47.853 58.101 47.5035C60.9007 44.8096 62.931 41.4097 63.9723 37.655C65.095 33.6067 65.0198 29.3198 63.7558 25.3133C62.4918 21.3069 60.0932 17.753 56.8506 15.0819C53.608 12.4108 49.6605 10.7373 45.4861 10.264C41.3118 9.79067 37.0898 10.5379 33.3315 12.4151C29.5731 14.2923 26.4397 17.219 24.3108 20.8407C22.1818 24.4624 21.1487 28.6237 21.3365 32.8206C21.5107 36.7131 22.7282 40.4813 24.8537 43.7336C25.1294 44.1556 25.0365 44.7247 24.6265 45.0179V45.0179Z" fill="#5A0001" stroke="#5A0001" stroke-width="0.386052" mask="url(#path-2-inside-2_425_5408)"/>
<path d="M28.1756 23.6027C28.1756 23.6027 38.6301 22.9429 42.6236 23.9754C45.0757 24.6093 47.8291 25.9659 48.697 28.421C49.4333 30.5038 48.697 32.5509 47.1162 34.0996C45.6815 35.5052 44.3244 36.0106 41.5741 36.5087C38.3064 37.1005 31.808 36.5087 31.808 36.5087V27.024" stroke="#5A0001" stroke-width="2.9726"/>
<path d="M32.6345 18.8555C32.6345 18.8555 45.3293 17.8224 50.1785 19.4389C53.1561 20.4315 56.4994 22.5555 57.5533 26.3992C58.4475 29.6601 57.5533 32.8652 55.6339 35.29C53.8917 37.4907 52.2438 38.2819 48.9041 39.0618C44.9362 39.9884 37.0453 39.0618 37.0453 39.0618V24.2119" stroke="#5A0001" stroke-width="2.9726"/>
<path d="M25.0513 48.0794C20.9913 48.6549 14.9596 50.1521 9.94668 51.5042C7.4394 52.1804 5.18558 52.8207 3.55859 53.2919C2.74508 53.5275 2.08825 53.7209 1.63477 53.8554C1.57609 53.8728 1.52082 53.8892 1.46905 53.9046C1.54847 53.847 1.63776 53.7825 1.73643 53.7114C2.20037 53.3775 2.87182 52.8998 3.70157 52.3251C5.36114 51.1757 7.6536 49.6383 10.1854 48.0865C12.7175 46.5346 15.4874 44.9691 18.1022 43.7628C20.7195 42.5553 23.1716 41.7124 25.0707 41.5968C32.0749 41.1705 36.9439 42.8428 41.8321 44.6223C42.0081 44.6864 42.1841 44.7506 42.3602 44.8148C47.0784 46.5359 51.8878 48.2903 58.7014 48.2715C63.2027 48.2591 70.0085 47.1196 75.6827 45.9852C78.5211 45.4177 81.0787 44.851 82.9267 44.4262C83.8507 44.2138 84.5974 44.0368 85.113 43.913C85.3345 43.8598 85.5134 43.8164 85.6455 43.7842C85.6238 43.8106 85.5997 43.8393 85.5733 43.8702C85.4062 44.0661 85.1439 44.3511 84.7651 44.7049C84.0076 45.4123 82.7843 46.3947 80.9252 47.4879C77.2071 49.6742 70.9451 52.3041 60.7806 54.0627C55.7027 54.9413 51.945 54.8639 48.9138 54.2921C45.8827 53.7203 43.5726 52.6532 41.3876 51.5438C41.083 51.3891 40.7806 51.2336 40.479 51.0783C38.619 50.1213 36.7864 49.1783 34.6123 48.5484C32.0825 47.8155 29.0926 47.5066 25.0513 48.0794Z" fill="url(#paint0_angular_425_5408)" stroke="#5A0001" stroke-width="0.193026"/>
<defs>
<radialGradient id="paint0_angular_425_5408" cx="0" cy="0" r="1" gradientUnits="userSpaceOnUse" gradientTransform="translate(43.4247 48.0634) rotate(90) scale(6.75592 42.8643)">
<stop offset="0.11612" stop-color="#5A0001"/>
<stop offset="0.508049" stop-color="white"/>
</radialGradient>
</defs>
</svg>
