<svg width="106" height="102" viewBox="0 0 86 82" fill="none" xmlns="http://www.w3.org/2000/svg">
<path d="M15.2069 14.507H81.7304L73.415 50.5405H23.5223M73.415 61.6278H26.2941L12.4351 3.41971H4.11963" stroke="#5A0001" stroke-width="6.73764" stroke-linecap="round" stroke-linejoin="round"/>
<path d="M67.8713 78.2587C70.9329 78.2587 73.4149 75.7767 73.4149 72.7151C73.4149 69.6534 70.9329 67.1714 67.8713 67.1714C64.8096 67.1714 62.3276 69.6534 62.3276 72.7151C62.3276 75.7767 64.8096 78.2587 67.8713 78.2587Z" stroke="#5A0001" stroke-width="6.73764" stroke-linecap="round" stroke-linejoin="round"/>
<path d="M31.8381 78.2587C34.8997 78.2587 37.3817 75.7767 37.3817 72.7151C37.3817 69.6534 34.8997 67.1714 31.8381 67.1714C28.7764 67.1714 26.2944 69.6534 26.2944 72.7151C26.2944 75.7767 28.7764 78.2587 31.8381 78.2587Z" stroke="#5A0001" stroke-width="6.73764" stroke-linecap="round" stroke-linejoin="round"/>
</svg>
