<svg width="17" height="17" viewBox="0 0 17 17" fill="none" xmlns="http://www.w3.org/2000/svg">
<path d="M2.41846 2.97C2.41846 2.83654 2.47148 2.70854 2.56585 2.61416C2.66023 2.51979 2.78823 2.46677 2.92169 2.46677H3.2961C3.93353 2.46677 4.31599 2.89552 4.53406 3.29409C4.67966 3.5598 4.78501 3.86778 4.86754 4.1469C4.88986 4.14514 4.91225 4.14425 4.93464 4.14422H13.3206C13.8775 4.14422 14.2801 4.67698 14.1271 5.21309L12.9005 9.51341C12.7906 9.89913 12.5579 10.2385 12.2378 10.4802C11.9177 10.7218 11.5275 10.8526 11.1265 10.8527H7.13546C6.73119 10.8527 6.3381 10.72 6.01661 10.4748C5.69513 10.2297 5.46304 9.88582 5.35601 9.49597L4.84607 7.63601L4.00063 4.78568L3.99996 4.78031C3.89529 4.39986 3.79732 4.04357 3.65105 3.77786C3.51082 3.51954 3.39809 3.47324 3.29677 3.47324H2.92169C2.78823 3.47324 2.66023 3.42022 2.56585 3.32584C2.47148 3.23147 2.41846 3.10347 2.41846 2.97ZM5.82235 7.39177L6.32625 9.22959C6.4269 9.59326 6.75769 9.84622 7.13546 9.84622H11.1265C11.3088 9.84622 11.4861 9.78681 11.6316 9.677C11.7772 9.56719 11.883 9.41295 11.933 9.23764L13.0985 5.15069H5.15942L5.81295 7.35621L5.82235 7.39177ZM8.1218 12.867C8.1218 13.2229 7.98042 13.5642 7.72875 13.8159C7.47708 14.0676 7.13575 14.2089 6.77984 14.2089C6.42393 14.2089 6.08259 14.0676 5.83093 13.8159C5.57926 13.5642 5.43787 13.2229 5.43787 12.867C5.43787 12.5111 5.57926 12.1697 5.83093 11.9181C6.08259 11.6664 6.42393 11.525 6.77984 11.525C7.13575 11.525 7.47708 11.6664 7.72875 11.9181C7.98042 12.1697 8.1218 12.5111 8.1218 12.867ZM7.11533 12.867C7.11533 12.778 7.07998 12.6927 7.01707 12.6298C6.95415 12.5668 6.86881 12.5315 6.77984 12.5315C6.69086 12.5315 6.60553 12.5668 6.54261 12.6298C6.47969 12.6927 6.44435 12.778 6.44435 12.867C6.44435 12.956 6.47969 13.0413 6.54261 13.1042C6.60553 13.1671 6.69086 13.2025 6.77984 13.2025C6.86881 13.2025 6.95415 13.1671 7.01707 13.1042C7.07998 13.0413 7.11533 12.956 7.11533 12.867ZM12.8187 12.867C12.8187 13.2229 12.6773 13.5642 12.4256 13.8159C12.174 14.0676 11.8326 14.2089 11.4767 14.2089C11.1208 14.2089 10.7795 14.0676 10.5278 13.8159C10.2761 13.5642 10.1347 13.2229 10.1347 12.867C10.1347 12.5111 10.2761 12.1697 10.5278 11.9181C10.7795 11.6664 11.1208 11.525 11.4767 11.525C11.8326 11.525 12.174 11.6664 12.4256 11.9181C12.6773 12.1697 12.8187 12.5111 12.8187 12.867ZM11.8122 12.867C11.8122 12.778 11.7769 12.6927 11.7139 12.6298C11.651 12.5668 11.5657 12.5315 11.4767 12.5315C11.3877 12.5315 11.3024 12.5668 11.2395 12.6298C11.1766 12.6927 11.1412 12.778 11.1412 12.867C11.1412 12.956 11.1766 13.0413 11.2395 13.1042C11.3024 13.1671 11.3877 13.2025 11.4767 13.2025C11.5657 13.2025 11.651 13.1671 11.7139 13.1042C11.7769 13.0413 11.8122 12.956 11.8122 12.867Z" fill="black"/>
</svg>
