<svg width="18" height="17" viewBox="0 0 18 17" fill="none" xmlns="http://www.w3.org/2000/svg">
<path d="M3.96042 3.75342H12.8925C13.4392 3.75342 13.9635 3.97058 14.35 4.35714C14.7366 4.7437 14.9537 5.26799 14.9537 5.81467V11.9984C14.9537 12.5451 14.7366 13.0694 14.35 13.4559C13.9635 13.8425 13.4392 14.0597 12.8925 14.0597H3.96042C3.41374 14.0597 2.88945 13.8425 2.5029 13.4559C2.11634 13.0694 1.89917 12.5451 1.89917 11.9984V5.81467C1.89917 5.26799 2.11634 4.7437 2.5029 4.35714C2.88945 3.97058 3.41374 3.75342 3.96042 3.75342ZM3.96042 4.4405C3.61688 4.4405 3.31456 4.5573 3.08095 4.76343L8.42646 8.21946L13.772 4.76343C13.5384 4.5573 13.236 4.4405 12.8925 4.4405H3.96042ZM8.42646 9.05083L2.67557 5.31997C2.62061 5.47113 2.58625 5.6429 2.58625 5.81467V11.9984C2.58625 12.3629 2.73103 12.7124 2.98874 12.9701C3.24644 13.2278 3.59597 13.3726 3.96042 13.3726H12.8925C13.2569 13.3726 13.6065 13.2278 13.8642 12.9701C14.1219 12.7124 14.2667 12.3629 14.2667 11.9984V5.81467C14.2667 5.6429 14.2323 5.47113 14.1773 5.31997L8.42646 9.05083Z" fill="#5A0001"/>
</svg>
