<svg width="17" height="17" viewBox="0 0 17 17" fill="none" xmlns="http://www.w3.org/2000/svg">
<g clip-path="url(#clip0_425_7590)">
<path d="M12.9381 5.45884C12.846 6.738 11.897 7.7234 10.8623 7.7234C9.82748 7.7234 8.877 6.73832 8.78641 5.45884C8.69206 4.12809 9.61581 3.19427 10.8623 3.19427C12.1087 3.19427 13.0325 4.15231 12.9381 5.45884Z" stroke="black" stroke-width="0.932844" stroke-linecap="round" stroke-linejoin="round"/>
<path d="M10.862 9.73633C8.81227 9.73633 6.84115 10.7544 6.34735 12.7372C6.28193 12.9995 6.44643 13.259 6.71597 13.259H15.0084C15.2779 13.259 15.4415 12.9995 15.377 12.7372C14.8832 10.7227 12.9121 9.73633 10.862 9.73633Z" stroke="black" stroke-width="0.932844" stroke-miterlimit="10"/>
<path d="M6.58378 6.02309C6.51019 7.04466 5.74338 7.84921 4.91681 7.84921C4.09025 7.84921 3.32218 7.04497 3.24984 6.02309C3.17467 4.96032 3.92103 4.20074 4.91681 4.20074C5.91259 4.20074 6.65895 4.97982 6.58378 6.02309Z" stroke="black" stroke-width="0.932844" stroke-linecap="round" stroke-linejoin="round"/>
<path d="M6.77329 9.79925C6.20558 9.53914 5.58031 9.43912 4.91761 9.43912C3.28209 9.43912 1.70633 10.2522 1.31161 11.8358C1.25971 12.0453 1.39118 12.2525 1.60632 12.2525H5.13778" stroke="black" stroke-width="0.932844" stroke-miterlimit="10" stroke-linecap="round"/>
</g>
<defs>
<clipPath id="clip0_425_7590">
<rect width="16.1036" height="16.1036" fill="white" transform="translate(0.293945 0.174866)"/>
</clipPath>
</defs>
</svg>
