<svg width="97" height="96" viewBox="0 0 97 96" fill="none" xmlns="http://www.w3.org/2000/svg">
<path fill-rule="evenodd" clip-rule="evenodd" d="M10.9868 83.422C12.3438 83.0532 12.9265 82.2583 14.7971 82.5206C15.2801 82.5861 15.7708 82.8975 16.2768 83.0778C16.8287 83.2827 17.4114 83.3564 17.7564 83.5285C18.0631 83.6842 18.477 84.1267 18.914 84.5446C19.4507 85.0609 19.9874 85.5526 20.3937 86.2409C20.5317 86.4785 20.6007 86.7981 20.708 87.0276C21.1757 88.0109 21.582 88.814 21.3367 90.1907C21.306 90.3792 21.237 90.8135 21.122 91.0921C21.1067 91.1412 20.9303 91.1658 20.915 91.2068C20.8613 91.3379 20.9303 91.5346 20.8153 91.764C20.7157 91.9525 20.5087 92.1328 20.3937 92.3295C19.995 92.9686 19.7574 93.3866 19.1287 93.9028C18.8527 94.1323 18.569 94.4273 18.1781 94.6977C17.7257 95.0091 17.5954 95.1484 16.8057 95.2631C16.3228 95.3287 15.3721 95.4844 14.6898 95.4844C14.2451 95.4844 13.7315 95.3369 13.2101 95.2631C11.9988 95.0828 11.6385 95.0664 10.7798 94.3617C10.6419 94.247 10.5192 94.0585 10.3582 93.911C10.0439 93.6406 9.9902 93.5341 9.72187 93.1243C9.6912 93.0834 9.52254 93.0506 9.51487 93.0096C9.13155 92.1 8.34189 90.838 8.2499 89.7318C8.12723 88.2813 8.31123 87.0522 8.77889 86.2327C8.84022 86.118 8.91688 85.8967 8.98588 85.782C9.01655 85.741 9.18521 85.7083 9.20054 85.6755C9.40754 85.2002 9.85987 84.5037 10.2585 84.0939C10.3275 84.0202 10.4962 84.053 10.5729 83.9792C10.6955 83.8645 10.8028 83.6924 10.9868 83.422Z" fill="#2F2F2F"/>
<path fill-rule="evenodd" clip-rule="evenodd" d="M27.3856 89.6487C26.9179 89.9519 26.3966 90.2305 25.8293 90.4682C24.6103 90.9763 23.2993 91.1811 21.996 91.1811C19.5044 91.1811 16.8134 90.4764 14.8125 88.8293C11.5082 86.1005 10.2202 80.9789 11.7535 76.8242C13.7622 71.3421 19.2744 69.7605 24.181 71.6207C31.2495 74.2921 34.1168 85.281 27.3856 89.6487Z" fill="#2F2F2F"/>
<path fill-rule="evenodd" clip-rule="evenodd" d="M86.1648 14.9806C88.9631 18.1929 91.0024 22.5196 91.3321 26.4039C91.4241 27.5265 91.1328 28.8376 91.4394 30.0177C91.5927 30.6241 92.0681 31.1321 92.4974 31.7139C92.8961 32.2466 93.3254 32.7956 93.655 33.2955C95.1577 35.4834 96.5913 38.458 96.9056 41.195C97.0743 42.7028 96.967 44.3499 96.9593 45.8659C96.9286 49.4715 95.4797 52.8641 93.333 55.5847C92.2674 56.945 91.0638 58.2315 89.7374 59.3132C88.9861 59.9278 86.9085 60.8784 86.5558 61.8781C86.3565 62.4189 86.3795 63.0008 86.2722 63.558C86.1725 64.0824 85.8888 64.5659 85.8812 65.1068C85.8352 67.9175 84.6085 69.917 82.9296 72.0721C81.2736 74.2027 78.6593 76.0629 76.1293 76.7758C74.826 77.1446 72.4801 77.161 70.3181 76.9971C68.3785 76.8496 66.4925 76.9725 65.2429 76.6611C64.2002 76.3989 63.1192 75.6204 62.0153 75.8252C60.9343 76.0301 60.2366 77.0954 59.3243 77.6526C57.6837 78.6606 55.698 79.7177 53.8351 80.1602C52.5471 80.4716 51.0368 80.3896 49.5035 80.3896C47.5409 80.3896 45.5552 80.2995 43.6386 79.8078C42.2433 79.4472 41.0856 78.4721 39.721 78.0706C37.95 77.5461 37.0377 78.554 35.4507 79.0293C34.7761 79.2342 33.9021 79.2506 33.0281 79.3735C26.8566 80.2421 19.4354 78.046 17.0664 71.2445C17.0204 71.1052 17.0204 70.8102 16.9667 70.6791C16.1387 68.696 12.8421 68.6796 11.3012 67.5979C9.67586 66.4589 8.53355 65.2133 7.5599 63.4515C5.88093 60.3949 7.7669 57.2892 4.92261 54.6423C4.44729 54.1998 3.99496 53.7245 3.5503 53.1755C-0.581955 48.0375 -0.873284 40.1215 1.47267 34.0576C2.33133 31.8368 3.67297 29.8292 5.34427 28.2149C5.4516 28.1083 5.60494 27.8461 5.75827 27.6494C6.18759 27.1168 6.44059 26.4694 6.60925 25.5025C7.16891 22.2164 7.88189 18.6108 9.82919 15.8984C10.8258 14.5135 12.2978 13.2516 13.6778 12.3174C14.3371 11.8667 15.0578 11.4406 15.7938 11.162C16.6371 10.8424 17.7641 10.572 18.6534 10.5392C19.6347 10.5064 22.3103 10.3425 23.1 9.69515C23.7133 9.18708 24.3879 8.36763 24.7406 7.63012C25.9596 5.06522 28.9419 3.78687 31.1268 2.3856C33.7258 0.713907 37.0454 0.566406 39.9893 0.877799C41.952 1.08266 43.6309 2.36921 45.4709 3.01658C47.6482 3.79506 49.0512 2.67241 51.0368 1.90212C53.6511 0.885993 56.4724 0.648351 59.2477 0.746686C63.9702 0.910577 68.7771 3.78687 72.2194 7.11386C73.9751 8.81833 73.9214 10.195 76.5433 10.2524C77.6397 10.277 78.6746 10.2606 79.61 10.4736C80.1849 10.6047 80.6986 10.8096 81.1969 11.0391C82.9602 11.8749 84.6622 13.268 86.1648 14.9806Z" fill="#2F2F2F"/>
<path fill-rule="evenodd" clip-rule="evenodd" d="M55.744 6.73739C58.7953 6.5653 61.9846 7.37656 64.6909 8.87617C67.7421 10.5724 69.0685 13.4405 71.2994 15.9235C71.6444 16.3004 72.2424 16.1857 72.7407 16.112C73.331 16.03 73.9367 15.9972 74.5654 15.9972C77.0186 15.9972 79.4336 16.997 81.3042 18.7014C82.2702 19.5865 82.8759 20.7091 83.7269 21.6925C85.6818 23.946 86.4638 27.4532 86.1265 30.4606C86.0728 30.9523 85.9195 31.3948 85.9885 31.9357C86.0958 32.7961 87.4221 32.9764 87.9435 33.4189C88.6411 34.0171 89.0858 34.8939 89.5304 35.7134C91.3704 39.0895 92.229 43.3589 91.7154 47.2185C91.4547 49.177 90.8184 51.07 89.6301 52.6105C88.7101 53.7988 87.4758 54.7084 86.2185 55.4459C85.8275 55.6753 85.2985 56.3555 84.8692 56.4292C84.4629 56.503 84.1792 55.9211 83.8495 55.7654C83.4125 55.5606 82.8452 55.4868 82.4466 55.8146C82.0632 56.1342 82.1859 56.5931 82.1859 57.0766C82.1859 57.8469 82.1706 58.6745 82.0172 59.4202C81.9022 59.9775 81.8486 60.5511 81.7412 61.1165C81.6339 61.6983 81.7259 62.2064 81.5342 62.78C79.7019 68.3605 75.2247 72.2529 69.5591 71.3843C68.0565 71.1548 66.4312 70.9254 65.0205 70.2862C64.3535 69.983 64.4992 69.434 64.3305 68.7784C64.1849 68.1884 63.6942 67.5001 63.0579 67.8688C62.5136 68.1884 62.1226 69.1144 61.7163 69.6143C61.3406 70.0813 60.8576 70.4255 60.4053 70.7861C59.9913 71.1221 59.6156 71.499 59.194 71.8268C58.3276 72.5069 57.4153 73.1051 56.4417 73.605C53.3674 75.2193 49.7641 75.9732 46.3755 75.2193C45.3942 74.9981 44.3669 74.8424 43.4699 74.3425C42.7799 73.9574 42.5806 73.6624 42.6573 72.8429C42.7033 72.3594 42.9716 71.5482 42.6726 71.1139C42.1973 70.4337 41.2236 70.7205 40.71 71.1794C39.767 72.0071 38.594 72.7282 37.4364 73.1461C36.455 73.5067 35.4431 73.7689 34.4157 73.9328C31.0731 74.49 27.3932 74.1131 24.4953 72.1218C22.2413 70.5648 20.6773 68.1802 19.972 65.4268C19.7267 64.4763 19.7803 61.8048 18.2317 62.9193C17.9327 63.1405 17.7334 63.624 17.3884 63.7633C17.0587 63.8944 16.7981 63.7142 16.4761 63.6486C15.8948 63.5406 15.3283 63.3562 14.7894 63.0996C10.3045 60.8625 12.3898 55.9949 12.4128 52.0287C12.4128 51.1847 12.1215 50.3816 11.2398 50.8241C10.9025 50.9962 10.2202 51.7993 9.88284 51.7911C9.54552 51.7829 9.02419 50.9634 8.7942 50.7176C7.99007 49.8303 7.31087 48.8227 6.7779 47.7266C6.77041 47.7084 6.76003 47.6918 6.74723 47.6774C4.99926 44.0144 4.82293 39.2944 6.27191 35.4921C7.16889 33.1403 9.31552 30.9441 11.1632 29.3953C11.5158 29.0922 12.0831 28.9446 12.3591 28.5677C12.5968 28.2481 12.5891 27.863 12.3208 27.5762C12.0525 27.2975 11.4851 27.4368 11.3242 27.1009C11.2015 26.855 11.3242 26.2896 11.3395 26.0192C11.4008 25.1751 11.5465 24.3475 11.7841 23.5362C12.5431 20.8894 14.1301 18.6851 16.0927 16.9396C17.4957 15.7022 19.2513 15.0057 21.0376 14.6943C23.0999 14.3337 25.9826 15.3826 27.2322 13.4078C28.3975 11.5558 29.7085 10.1709 31.4718 8.96631C33.3578 7.67976 35.5657 6.99961 37.8043 7.016C41.2313 7.04059 43.8839 8.12227 46.7972 9.78576C48.1925 10.5806 48.8825 9.33506 49.9711 8.60575C51.7114 7.43392 53.7047 6.85211 55.744 6.73739ZM25.1009 83.9547C23.2149 85.5691 19.8953 86.0525 17.7334 84.3481C16.7751 83.5942 16.3534 82.1192 16.1311 80.9309C15.8857 79.587 16.5834 78.2104 17.4727 77.309C17.7487 77.0303 18.0094 76.6616 18.3237 76.5223C20.6083 75.4816 23.6136 76.1043 25.2849 78.0792C27.2705 80.4229 26.6955 82.5944 25.1009 83.9547ZM14.1301 86.8146C17.212 85.9378 19.029 90.6087 15.6174 91.6658C14.1991 92.1083 13.0491 91.1414 12.5891 89.7483C12.1368 88.3716 12.9801 87.1424 14.1301 86.8146Z" fill="white"/>
<path d="M19.5108 38.9116L17.7892 45.5006H16.6084L15.5088 41.5526C15.4817 41.4565 15.4517 41.3423 15.4186 41.2101C15.3856 41.0779 15.3525 40.9427 15.3195 40.8045C15.2894 40.6663 15.2624 40.5401 15.2384 40.4259C15.2173 40.3087 15.2023 40.2186 15.1933 40.1555C15.1873 40.2186 15.1738 40.3072 15.1527 40.4214C15.1317 40.5356 15.1062 40.6618 15.0761 40.8C15.0491 40.9352 15.019 41.0704 14.986 41.2056C14.9529 41.3378 14.9229 41.455 14.8958 41.5571L13.8142 45.5006H12.6379L10.9208 38.9116H12.007L12.9579 42.774C12.9879 42.8972 13.018 43.0309 13.048 43.1751C13.0811 43.3163 13.1111 43.459 13.1382 43.6032C13.1682 43.7474 13.1953 43.8887 13.2193 44.0269C13.2433 44.1621 13.2629 44.2853 13.2779 44.3964C13.2929 44.2823 13.3124 44.1561 13.3365 44.0179C13.3605 43.8766 13.386 43.7339 13.4131 43.5897C13.4431 43.4425 13.4732 43.3013 13.5032 43.1661C13.5363 43.0309 13.5693 42.9092 13.6024 42.801L14.675 38.9116H15.7296L16.8248 42.8145C16.8578 42.9257 16.8894 43.0504 16.9194 43.1886C16.9525 43.3268 16.984 43.468 17.0141 43.6122C17.0441 43.7565 17.0711 43.8962 17.0952 44.0314C17.1192 44.1666 17.1387 44.2883 17.1538 44.3964C17.1748 44.2492 17.2018 44.081 17.2349 43.8917C17.2679 43.7024 17.3055 43.5101 17.3476 43.3148C17.3896 43.1195 17.4317 42.9392 17.4738 42.774L18.4202 38.9116H19.5108ZM21.487 38.488V40.2501C21.487 40.4334 21.481 40.6122 21.469 40.7865C21.46 40.9607 21.4495 41.0959 21.4374 41.1921H21.496C21.6012 41.0178 21.7304 40.8751 21.8836 40.7639C22.0368 40.6497 22.2081 40.5641 22.3974 40.507C22.5897 40.4499 22.794 40.4214 23.0103 40.4214C23.3919 40.4214 23.7164 40.486 23.9838 40.6152C24.2512 40.7414 24.4555 40.9382 24.5967 41.2056C24.7409 41.473 24.8131 41.82 24.8131 42.2467V45.5006H23.754V42.445C23.754 42.0574 23.6743 41.7674 23.5151 41.5752C23.3558 41.3799 23.1095 41.2822 22.776 41.2822C22.4545 41.2822 22.1991 41.3498 22.0098 41.485C21.8235 41.6172 21.6898 41.814 21.6087 42.0754C21.5276 42.3338 21.487 42.6493 21.487 43.0218V45.5006H20.4279V38.488H21.487ZM28.3441 40.4169C28.975 40.4169 29.4513 40.5566 29.7727 40.836C30.0972 41.1155 30.2595 41.5511 30.2595 42.143V45.5006H29.5068L29.304 44.793H29.268C29.1268 44.9733 28.981 45.122 28.8308 45.2392C28.6806 45.3564 28.5063 45.4435 28.308 45.5006C28.1127 45.5607 27.8739 45.5907 27.5914 45.5907C27.294 45.5907 27.0281 45.5367 26.7937 45.4285C26.5594 45.3173 26.3746 45.1491 26.2394 44.9237C26.1042 44.6984 26.0366 44.413 26.0366 44.0674C26.0366 43.5537 26.2274 43.1676 26.6089 42.9092C26.9935 42.6508 27.5734 42.5081 28.3486 42.481L29.2139 42.4495V42.1881C29.2139 41.8426 29.1328 41.5962 28.9705 41.449C28.8113 41.3017 28.5859 41.2281 28.2945 41.2281C28.0451 41.2281 27.8033 41.2642 27.5689 41.3363C27.3345 41.4084 27.1062 41.497 26.8839 41.6022L26.5413 40.8541C26.7847 40.7249 27.0611 40.6197 27.3706 40.5386C27.6831 40.4575 28.0076 40.4169 28.3441 40.4169ZM29.2094 43.1165L28.5649 43.139C28.0361 43.1571 27.665 43.2472 27.4517 43.4094C27.2384 43.5717 27.1317 43.794 27.1317 44.0764C27.1317 44.3228 27.2053 44.5031 27.3526 44.6173C27.4998 44.7284 27.6936 44.784 27.934 44.784C28.3005 44.784 28.604 44.6804 28.8443 44.4731C29.0877 44.2627 29.2094 43.9548 29.2094 43.5491V43.1165ZM33.6914 44.7344C33.8296 44.7344 33.9663 44.7224 34.1015 44.6984C34.2367 44.6714 34.3599 44.6398 34.471 44.6037V45.406C34.3539 45.457 34.2021 45.5006 34.0159 45.5367C33.8296 45.5727 33.6358 45.5907 33.4345 45.5907C33.152 45.5907 32.8982 45.5442 32.6728 45.451C32.4475 45.3549 32.2687 45.1911 32.1365 44.9598C32.0043 44.7284 31.9382 44.4085 31.9382 43.9998V41.3183H31.2577V40.845L31.9878 40.471L32.3348 39.4029H33.0018V40.5115H34.4305V41.3183H33.0018V43.9863C33.0018 44.2387 33.0649 44.4265 33.1911 44.5497C33.3173 44.6729 33.484 44.7344 33.6914 44.7344ZM39.9241 44.7344C40.0624 44.7344 40.1991 44.7224 40.3343 44.6984C40.4695 44.6714 40.5927 44.6398 40.7038 44.6037V45.406C40.5866 45.457 40.4349 45.5006 40.2486 45.5367C40.0624 45.5727 39.8686 45.5907 39.6673 45.5907C39.3848 45.5907 39.1309 45.5442 38.9056 45.451C38.6803 45.3549 38.5015 45.1911 38.3693 44.9598C38.2371 44.7284 38.171 44.4085 38.171 43.9998V41.3183H37.4904V40.845L38.2206 40.471L38.5676 39.4029H39.2346V40.5115H40.6633V41.3183H39.2346V43.9863C39.2346 44.2387 39.2977 44.4265 39.4239 44.5497C39.5501 44.6729 39.7168 44.7344 39.9241 44.7344ZM46.2269 42.9948C46.2269 43.4094 46.1728 43.7775 46.0646 44.099C45.9565 44.4205 45.7987 44.6924 45.5914 44.9147C45.3841 45.1341 45.1347 45.3023 44.8433 45.4195C44.5518 45.5337 44.2228 45.5907 43.8563 45.5907C43.5138 45.5907 43.1998 45.5337 42.9143 45.4195C42.6289 45.3023 42.381 45.1341 42.1707 44.9147C41.9634 44.6924 41.8027 44.4205 41.6885 44.099C41.5743 43.7775 41.5172 43.4094 41.5172 42.9948C41.5172 42.445 41.6119 41.9793 41.8012 41.5977C41.9934 41.2131 42.2669 40.9202 42.6214 40.7189C42.9759 40.5175 43.3981 40.4169 43.8878 40.4169C44.3475 40.4169 44.7531 40.5175 45.1047 40.7189C45.4562 40.9202 45.7311 41.2131 45.9294 41.5977C46.1277 41.9823 46.2269 42.448 46.2269 42.9948ZM42.6079 42.9948C42.6079 43.3584 42.6514 43.6693 42.7386 43.9277C42.8287 44.1861 42.9669 44.3844 43.1532 44.5226C43.3395 44.6578 43.5799 44.7254 43.8743 44.7254C44.1687 44.7254 44.4091 44.6578 44.5954 44.5226C44.7817 44.3844 44.9184 44.1861 45.0055 43.9277C45.0926 43.6693 45.1362 43.3584 45.1362 42.9948C45.1362 42.6313 45.0926 42.3233 45.0055 42.0709C44.9184 41.8155 44.7817 41.6217 44.5954 41.4895C44.4091 41.3543 44.1672 41.2867 43.8698 41.2867C43.4311 41.2867 43.1111 41.4339 42.9098 41.7284C42.7085 42.0228 42.6079 42.445 42.6079 42.9948ZM52.0135 40.4169C52.4582 40.4169 52.8397 40.5085 53.1582 40.6918C53.4767 40.8751 53.7216 41.135 53.8928 41.4715C54.0641 41.808 54.1497 42.2106 54.1497 42.6793V43.2472H50.8192C50.8312 43.7309 50.9604 44.1035 51.2068 44.3649C51.4561 44.6263 51.8047 44.757 52.2523 44.757C52.5708 44.757 52.8563 44.7269 53.1086 44.6668C53.364 44.6037 53.6269 44.5121 53.8973 44.3919V45.2527C53.648 45.3699 53.3941 45.4555 53.1357 45.5096C52.8773 45.5637 52.5678 45.5907 52.2073 45.5907C51.7175 45.5907 51.2864 45.4961 50.9138 45.3068C50.5442 45.1145 50.2543 44.8291 50.044 44.4505C49.8367 44.0719 49.733 43.6017 49.733 43.0399C49.733 42.481 49.8277 42.0063 50.0169 41.6157C50.2062 41.2251 50.4721 40.9277 50.8147 40.7234C51.1572 40.519 51.5568 40.4169 52.0135 40.4169ZM52.0135 41.2146C51.68 41.2146 51.4096 41.3228 51.2022 41.5391C50.9979 41.7554 50.8778 42.0724 50.8417 42.49H53.1131C53.1101 42.2407 53.0681 42.0198 52.987 41.8275C52.9088 41.6352 52.7887 41.485 52.6264 41.3768C52.4672 41.2687 52.2629 41.2146 52.0135 41.2146ZM56.5405 42.9497L54.873 40.5115H56.0808L57.221 42.2647L58.3658 40.5115H59.5691L57.8926 42.9497L59.6547 45.5006H58.4424L57.221 43.6303L55.9952 45.5006H54.7919L56.5405 42.9497ZM63.1722 40.4169C63.7641 40.4169 64.2389 40.6332 64.5964 41.0659C64.9569 41.4985 65.1372 42.1415 65.1372 42.9948C65.1372 43.5597 65.0531 44.0359 64.8848 44.4235C64.7196 44.8081 64.4867 45.0995 64.1863 45.2978C63.8888 45.4931 63.5418 45.5907 63.1452 45.5907C62.8928 45.5907 62.6735 45.5577 62.4872 45.4916C62.3009 45.4255 62.1417 45.3399 62.0095 45.2347C61.8773 45.1265 61.7661 45.0094 61.676 44.8832H61.6129C61.6279 45.0034 61.6414 45.1371 61.6534 45.2843C61.6685 45.4285 61.676 45.5607 61.676 45.6809V47.7135H60.6124V40.5115H61.4777L61.6264 41.2011H61.676C61.7691 41.0599 61.8818 40.9292 62.014 40.809C62.1492 40.6888 62.3114 40.5942 62.5007 40.5251C62.693 40.4529 62.9169 40.4169 63.1722 40.4169ZM62.8883 41.2822C62.5969 41.2822 62.3625 41.3408 62.1852 41.458C62.011 41.5721 61.8833 41.7449 61.8022 41.9763C61.724 42.2076 61.682 42.4976 61.676 42.8461V42.9948C61.676 43.3644 61.7135 43.6783 61.7886 43.9367C61.8668 44.1921 61.9944 44.3874 62.1717 44.5226C62.352 44.6548 62.5954 44.7209 62.9018 44.7209C63.1602 44.7209 63.3735 44.6503 63.5418 44.5091C63.7131 44.3679 63.8408 44.1666 63.9249 43.9052C64.009 43.6438 64.0511 43.3358 64.0511 42.9813C64.0511 42.4435 63.9549 42.0258 63.7626 41.7284C63.5733 41.4309 63.2819 41.2822 62.8883 41.2822ZM68.4429 40.4169C68.8876 40.4169 69.2692 40.5085 69.5876 40.6918C69.9061 40.8751 70.151 41.135 70.3223 41.4715C70.4935 41.808 70.5791 42.2106 70.5791 42.6793V43.2472H67.2486C67.2606 43.7309 67.3898 44.1035 67.6362 44.3649C67.8856 44.6263 68.2341 44.757 68.6818 44.757C69.0002 44.757 69.2857 44.7269 69.5381 44.6668C69.7935 44.6037 70.0564 44.5121 70.3268 44.3919V45.2527C70.0774 45.3699 69.8235 45.4555 69.5651 45.5096C69.3067 45.5637 68.9972 45.5907 68.6367 45.5907C68.147 45.5907 67.7158 45.4961 67.3432 45.3068C66.9737 45.1145 66.6837 44.8291 66.4734 44.4505C66.2661 44.0719 66.1624 43.6017 66.1624 43.0399C66.1624 42.481 66.2571 42.0063 66.4464 41.6157C66.6357 41.2251 66.9016 40.9277 67.2441 40.7234C67.5866 40.519 67.9862 40.4169 68.4429 40.4169ZM68.4429 41.2146C68.1094 41.2146 67.839 41.3228 67.6317 41.5391C67.4274 41.7554 67.3072 42.0724 67.2711 42.49H69.5426C69.5396 42.2407 69.4975 42.0198 69.4164 41.8275C69.3383 41.6352 69.2181 41.485 69.0558 41.3768C68.8966 41.2687 68.6923 41.2146 68.4429 41.2146ZM73.8758 45.5907C73.4041 45.5907 72.9955 45.4991 72.6499 45.3158C72.3044 45.1326 72.0385 44.8516 71.8522 44.4731C71.666 44.0945 71.5728 43.6137 71.5728 43.0309C71.5728 42.4239 71.675 41.9282 71.8793 41.5436C72.0836 41.159 72.366 40.8751 72.7266 40.6918C73.0901 40.5085 73.5062 40.4169 73.975 40.4169C74.2724 40.4169 74.5413 40.4469 74.7817 40.507C75.0251 40.5641 75.2309 40.6347 75.3991 40.7189L75.0836 41.5661C74.9004 41.491 74.7126 41.4279 74.5203 41.3768C74.328 41.3258 74.1432 41.3002 73.9659 41.3002C73.6745 41.3002 73.4311 41.3648 73.2358 41.494C73.0435 41.6232 72.8993 41.8155 72.8032 42.0709C72.71 42.3263 72.6635 42.6433 72.6635 43.0218C72.6635 43.3884 72.7115 43.6979 72.8077 43.9503C72.9038 44.1996 73.0466 44.3889 73.2358 44.5181C73.4251 44.6443 73.658 44.7074 73.9344 44.7074C74.2078 44.7074 74.4527 44.6744 74.669 44.6083C74.8853 44.5422 75.0897 44.4565 75.2819 44.3514V45.2708C75.0927 45.3789 74.8898 45.4585 74.6735 45.5096C74.4572 45.5637 74.1913 45.5907 73.8758 45.5907ZM78.4028 44.7344C78.5411 44.7344 78.6778 44.7224 78.813 44.6984C78.9482 44.6714 79.0714 44.6398 79.1825 44.6037V45.406C79.0653 45.457 78.9136 45.5006 78.7273 45.5367C78.5411 45.5727 78.3473 45.5907 78.146 45.5907C77.8635 45.5907 77.6096 45.5442 77.3843 45.451C77.159 45.3549 76.9802 45.1911 76.848 44.9598C76.7158 44.7284 76.6497 44.4085 76.6497 43.9998V41.3183H75.9691V40.845L76.6993 40.471L77.0463 39.4029H77.7133V40.5115H79.142V41.3183H77.7133V43.9863C77.7133 44.2387 77.7764 44.4265 77.9026 44.5497C78.0288 44.6729 78.1955 44.7344 78.4028 44.7344ZM80.8026 43.4906V43.2066C80.8026 42.9843 80.8282 42.7905 80.8793 42.6252C80.9303 42.46 81.016 42.3053 81.1362 42.161C81.2563 42.0138 81.4186 41.8606 81.6229 41.7013C81.8332 41.5361 82 41.3934 82.1231 41.2732C82.2493 41.153 82.3395 41.0328 82.3936 40.9126C82.4506 40.7895 82.4792 40.6467 82.4792 40.4845C82.4792 40.2291 82.3921 40.0353 82.2178 39.9031C82.0465 39.7679 81.8047 39.7003 81.4922 39.7003C81.2158 39.7003 80.9559 39.7394 80.7125 39.8175C80.4691 39.8956 80.2288 39.9932 79.9914 40.1104L79.6173 39.3172C79.8908 39.167 80.1867 39.0468 80.5052 38.9567C80.8267 38.8635 81.1797 38.817 81.5643 38.817C82.1772 38.817 82.6505 38.9657 82.984 39.2631C83.3205 39.5606 83.4887 39.9527 83.4887 40.4394C83.4887 40.7068 83.4467 40.9367 83.3625 41.129C83.2784 41.3183 83.1537 41.494 82.9885 41.6563C82.8262 41.8155 82.6294 41.9838 82.3981 42.161C82.2088 42.3113 82.0631 42.442 81.9609 42.5531C81.8618 42.6613 81.7926 42.771 81.7536 42.8821C81.7175 42.9933 81.6995 43.127 81.6995 43.2832V43.4906H80.8026ZM80.6314 44.9418C80.6314 44.6954 80.6945 44.5226 80.8207 44.4235C80.9499 44.3213 81.1076 44.2702 81.2939 44.2702C81.4742 44.2702 81.6289 44.3213 81.7581 44.4235C81.8873 44.5226 81.9519 44.6954 81.9519 44.9418C81.9519 45.1821 81.8873 45.3564 81.7581 45.4646C81.6289 45.5697 81.4742 45.6223 81.2939 45.6223C81.1076 45.6223 80.9499 45.5697 80.8207 45.4646C80.6945 45.3564 80.6314 45.1821 80.6314 44.9418Z" fill="#22181C"/>
</svg>
