<svg width="17" height="17" viewBox="0 0 17 17" fill="none" xmlns="http://www.w3.org/2000/svg">
<path d="M13.1412 4.07444C12.2097 3.14333 11.023 2.50936 9.73112 2.25268C8.43928 1.99601 7.10035 2.12817 5.88362 2.63244C4.6669 3.13672 3.62703 3.99047 2.89551 5.08573C2.16399 6.18099 1.77368 7.46857 1.77393 8.78565C1.77393 10.5521 2.47543 12.2463 3.72422 13.4958C4.973 14.7452 6.66684 15.4475 8.43333 15.4484C9.3075 15.4488 10.1733 15.2779 10.9817 14.9454C11.7876 14.6053 12.5207 14.1135 13.1412 13.4969C13.7599 12.8782 14.2508 12.1437 14.5856 11.3354C14.9205 10.527 15.0929 9.66063 15.0929 8.78565C15.0929 7.91068 14.9205 7.04428 14.5856 6.23592C14.2508 5.42756 13.7599 4.69309 13.1412 4.07444ZM12.6717 13.0207C11.7128 13.9838 10.4545 14.5917 9.10397 14.7442V10.3449H10.3648C10.5426 10.3449 10.7132 10.2742 10.839 10.1485C10.9647 10.0227 11.0354 9.85211 11.0354 9.67425C11.0354 9.49638 10.9647 9.3258 10.839 9.20004C10.7132 9.07427 10.5426 9.00361 10.3648 9.00361H9.10397V7.16607C9.10397 6.98821 9.17462 6.81763 9.30039 6.69186C9.42616 6.56609 9.59674 6.49544 9.7746 6.49544H10.5794C10.7572 6.49544 10.9278 6.42478 11.0536 6.29901C11.1793 6.17324 11.25 6.00267 11.25 5.8248C11.25 5.64694 11.1793 5.47636 11.0536 5.35059C10.9278 5.22482 10.7572 5.15417 10.5794 5.15417H9.43929C8.99463 5.15417 8.56818 5.33081 8.25376 5.64523C7.93934 5.95965 7.7627 6.3861 7.7627 6.83075V9.00361H6.50861C6.33075 9.00361 6.16017 9.07427 6.0344 9.20004C5.90863 9.3258 5.83798 9.49638 5.83798 9.67425C5.83798 9.85211 5.90863 10.0227 6.0344 10.1485C6.16017 10.2742 6.33075 10.3449 6.50861 10.3449H7.7627V14.7442C6.51726 14.6022 5.34793 14.0724 4.41988 13.2297C3.49184 12.3871 2.85198 11.2742 2.59069 10.0482C2.32941 8.8222 2.45989 7.54511 2.96372 6.39729C3.46755 5.24948 4.31926 4.28897 5.39854 3.65142C6.47782 3.01388 7.73013 2.73152 8.97857 2.84424C10.227 2.95697 11.4085 3.45907 12.3561 4.27962C13.3038 5.10018 13.9696 6.19772 14.2597 7.41721C14.5498 8.6367 14.4494 9.91652 13.9728 11.0759C13.6692 11.8023 13.2273 12.4628 12.6717 13.0207Z" fill="white"/>
</svg>
