<svg width="17" height="17" viewBox="0 0 17 17" fill="none" xmlns="http://www.w3.org/2000/svg">
<path d="M8.43333 11.4871C9.14479 11.4871 9.8271 11.2045 10.3302 10.7015C10.8332 10.1984 11.1159 9.51606 11.1159 8.80461C11.1159 8.09316 10.8332 7.41084 10.3302 6.90777C9.8271 6.40469 9.14479 6.12207 8.43333 6.12207C7.72188 6.12207 7.03956 6.40469 6.53649 6.90777C6.03342 7.41084 5.75079 8.09316 5.75079 8.80461C5.75079 9.51606 6.03342 10.1984 6.53649 10.7015C7.03956 11.2045 7.72188 11.4871 8.43333 11.4871Z" stroke="white" stroke-width="1.00595" stroke-linecap="round" stroke-linejoin="round"/>
<path d="M2.39762 11.4873V6.12222C2.39762 5.2329 2.7509 4.38001 3.37974 3.75117C4.00858 3.12232 4.86148 2.76904 5.75079 2.76904H11.1159C12.0052 2.76904 12.8581 3.12232 13.4869 3.75117C14.1158 4.38001 14.469 5.2329 14.469 6.12222V11.4873C14.469 12.3766 14.1158 13.2295 13.4869 13.8583C12.8581 14.4872 12.0052 14.8405 11.1159 14.8405H5.75079C4.86148 14.8405 4.00858 14.4872 3.37974 13.8583C2.7509 13.2295 2.39762 12.3766 2.39762 11.4873Z" stroke="white" stroke-width="1.00595"/>
<path d="M12.1218 5.12365L12.129 5.11572" stroke="white" stroke-width="1.00595" stroke-linecap="round" stroke-linejoin="round"/>
</svg>
