<svg width="8" height="9" viewBox="0 0 8 9" fill="none" xmlns="http://www.w3.org/2000/svg">
<path fill-rule="evenodd" clip-rule="evenodd" d="M4.31679 4.81955V6.9393C4.31679 7.01961 4.28488 7.09663 4.22809 7.15342C4.1713 7.21021 4.09428 7.24212 4.01397 7.24212C3.93365 7.24212 3.85663 7.21021 3.79984 7.15342C3.74305 7.09663 3.71114 7.01961 3.71114 6.9393V4.81955H1.5914C1.51108 4.81955 1.43406 4.78764 1.37727 4.73085C1.32048 4.67406 1.28857 4.59704 1.28857 4.51673C1.28857 4.43641 1.32048 4.35939 1.37727 4.3026C1.43406 4.24581 1.51108 4.21391 1.5914 4.21391H3.71114V2.09416C3.71114 2.01384 3.74305 1.93682 3.79984 1.88003C3.85663 1.82324 3.93365 1.79134 4.01397 1.79134C4.09428 1.79134 4.1713 1.82324 4.22809 1.88003C4.28488 1.93682 4.31679 2.01384 4.31679 2.09416V4.21391H6.43654C6.51685 4.21391 6.59387 4.24581 6.65066 4.3026C6.70745 4.35939 6.73936 4.43641 6.73936 4.51673C6.73936 4.59704 6.70745 4.67406 6.65066 4.73085C6.59387 4.78764 6.51685 4.81955 6.43654 4.81955H4.31679Z" fill="white"/>
</svg>
