<svg width="34" height="34" viewBox="0 0 34 34" fill="none" xmlns="http://www.w3.org/2000/svg">
<path d="M7.08333 7.0835H25.5C26.6272 7.0835 27.7082 7.53126 28.5052 8.32829C29.3022 9.12532 29.75 10.2063 29.75 11.3335V24.0835C29.75 25.2107 29.3022 26.2917 28.5052 27.0887C27.7082 27.8857 26.6272 28.3335 25.5 28.3335H7.08333C5.95616 28.3335 4.87516 27.8857 4.07813 27.0887C3.2811 26.2917 2.83333 25.2107 2.83333 24.0835V11.3335C2.83333 10.2063 3.2811 9.12532 4.07813 8.32829C4.87516 7.53126 5.95616 7.0835 7.08333 7.0835ZM7.08333 8.50016C6.375 8.50016 5.75167 8.741 5.27 9.166L16.2917 16.2918L27.3133 9.166C26.8317 8.741 26.2083 8.50016 25.5 8.50016H7.08333ZM16.2917 18.006L4.43417 10.3135C4.32083 10.6252 4.25 10.9793 4.25 11.3335V24.0835C4.25 24.8349 4.54851 25.5556 5.07986 26.087C5.61122 26.6183 6.33189 26.9168 7.08333 26.9168H25.5C26.2514 26.9168 26.9721 26.6183 27.5035 26.087C28.0348 25.5556 28.3333 24.8349 28.3333 24.0835V11.3335C28.3333 10.9793 28.2625 10.6252 28.1492 10.3135L16.2917 18.006Z" fill="white"/>
</svg>
