<svg width="21" height="20" viewBox="0 0 15 11" fill="none" xmlns="http://www.w3.org/2000/svg">
<mask id="path-1-inside-1_425_5173" fill="white">
<path d="M2.49891 7.65827C2.41329 7.70314 2.30723 7.67022 2.26522 7.58316C1.88675 6.7988 1.70759 5.93215 1.74496 5.06025C1.78483 4.13 2.06976 3.22679 2.57091 2.44206C3.07206 1.65732 3.77164 1.01892 4.59884 0.591474C5.42603 0.164029 6.35147 -0.0372864 7.28148 0.00790749C8.21149 0.0531014 9.11305 0.3432 9.8949 0.848837C10.6768 1.35447 11.3111 2.0577 11.7338 2.88733C12.1565 3.71696 12.3526 4.64354 12.302 5.57327C12.2547 6.44469 11.9923 7.28988 11.5396 8.03385C11.4893 8.11643 11.3806 8.1389 11.2997 8.08595V8.08595C11.2189 8.03299 11.1965 7.92465 11.2466 7.84196C11.6656 7.14968 11.9085 6.36411 11.9525 5.55428C11.9997 4.68613 11.8166 3.82092 11.4219 3.04625C11.0272 2.27157 10.4349 1.61493 9.7048 1.14278C8.97474 0.670636 8.1329 0.399753 7.26449 0.357553C6.39608 0.315353 5.53194 0.503333 4.75954 0.902465C3.98713 1.3016 3.33389 1.89771 2.86594 2.63047C2.39798 3.36322 2.13192 4.2066 2.0947 5.07524C2.05997 5.88552 2.22551 6.69093 2.57547 7.42058C2.61727 7.50774 2.58453 7.6134 2.49891 7.65827V7.65827Z"/>
</mask>
<path d="M2.49891 7.65827C2.41329 7.70314 2.30723 7.67022 2.26522 7.58316C1.88675 6.7988 1.70759 5.93215 1.74496 5.06025C1.78483 4.13 2.06976 3.22679 2.57091 2.44206C3.07206 1.65732 3.77164 1.01892 4.59884 0.591474C5.42603 0.164029 6.35147 -0.0372864 7.28148 0.00790749C8.21149 0.0531014 9.11305 0.3432 9.8949 0.848837C10.6768 1.35447 11.3111 2.0577 11.7338 2.88733C12.1565 3.71696 12.3526 4.64354 12.302 5.57327C12.2547 6.44469 11.9923 7.28988 11.5396 8.03385C11.4893 8.11643 11.3806 8.1389 11.2997 8.08595V8.08595C11.2189 8.03299 11.1965 7.92465 11.2466 7.84196C11.6656 7.14968 11.9085 6.36411 11.9525 5.55428C11.9997 4.68613 11.8166 3.82092 11.4219 3.04625C11.0272 2.27157 10.4349 1.61493 9.7048 1.14278C8.97474 0.670636 8.1329 0.399753 7.26449 0.357553C6.39608 0.315353 5.53194 0.503333 4.75954 0.902465C3.98713 1.3016 3.33389 1.89771 2.86594 2.63047C2.39798 3.36322 2.13192 4.2066 2.0947 5.07524C2.05997 5.88552 2.22551 6.69093 2.57547 7.42058C2.61727 7.50774 2.58453 7.6134 2.49891 7.65827V7.65827Z" fill="white" stroke="white" stroke-width="0.0885027" mask="url(#path-1-inside-1_425_5173)"/>
<mask id="path-2-inside-2_425_5173" fill="white">
<path d="M3.95124 7.51714C3.8828 7.5661 3.78736 7.55045 3.74109 7.48016C3.3521 6.88914 3.12927 6.2032 3.09756 5.49449C3.06357 4.73497 3.25054 3.98189 3.63582 3.32646C4.0211 2.67103 4.58816 2.14138 5.26831 1.80165C5.94847 1.46193 6.71254 1.3267 7.46798 1.41236C8.22342 1.49802 8.93782 1.80088 9.52464 2.28427C10.1115 2.76766 10.5455 3.41083 10.7743 4.13588C11.003 4.86093 11.0166 5.63676 10.8135 6.36939C10.6239 7.053 10.2531 7.67164 9.74169 8.16055C9.68086 8.2187 9.58434 8.21258 9.52859 8.14955V8.14955C9.47284 8.08651 9.479 7.99044 9.53964 7.9321C10.007 7.48237 10.346 6.91477 10.5198 6.28795C10.7072 5.61211 10.6947 4.89642 10.4837 4.22757C10.2727 3.55872 9.87223 2.9654 9.33089 2.51948C8.78955 2.07356 8.13053 1.79418 7.43365 1.71516C6.73676 1.63614 6.03192 1.76088 5.40448 2.07427C4.77705 2.38767 4.25395 2.87627 3.89853 3.48089C3.54311 4.08551 3.37064 4.78022 3.40199 5.48087C3.43107 6.1307 3.63433 6.75978 3.98916 7.30274C4.0352 7.37318 4.01969 7.46819 3.95124 7.51714V7.51714Z"/>
</mask>
<path d="M3.95124 7.51714C3.8828 7.5661 3.78736 7.55045 3.74109 7.48016C3.3521 6.88914 3.12927 6.2032 3.09756 5.49449C3.06357 4.73497 3.25054 3.98189 3.63582 3.32646C4.0211 2.67103 4.58816 2.14138 5.26831 1.80165C5.94847 1.46193 6.71254 1.3267 7.46798 1.41236C8.22342 1.49802 8.93782 1.80088 9.52464 2.28427C10.1115 2.76766 10.5455 3.41083 10.7743 4.13588C11.003 4.86093 11.0166 5.63676 10.8135 6.36939C10.6239 7.053 10.2531 7.67164 9.74169 8.16055C9.68086 8.2187 9.58434 8.21258 9.52859 8.14955V8.14955C9.47284 8.08651 9.479 7.99044 9.53964 7.9321C10.007 7.48237 10.346 6.91477 10.5198 6.28795C10.7072 5.61211 10.6947 4.89642 10.4837 4.22757C10.2727 3.55872 9.87223 2.9654 9.33089 2.51948C8.78955 2.07356 8.13053 1.79418 7.43365 1.71516C6.73676 1.63614 6.03192 1.76088 5.40448 2.07427C4.77705 2.38767 4.25395 2.87627 3.89853 3.48089C3.54311 4.08551 3.37064 4.78022 3.40199 5.48087C3.43107 6.1307 3.63433 6.75978 3.98916 7.30274C4.0352 7.37318 4.01969 7.46819 3.95124 7.51714V7.51714Z" fill="white" stroke="white" stroke-width="0.0885027" mask="url(#path-2-inside-2_425_5173)"/>
<path d="M4.5437 3.94199C4.5437 3.94199 6.28903 3.83184 6.95572 4.0042C7.36509 4.11004 7.82475 4.33652 7.96964 4.74637C8.09257 5.09408 7.96964 5.43584 7.70574 5.69439C7.46623 5.92906 7.23966 6.01342 6.78051 6.09658C6.23499 6.19538 5.15011 6.09658 5.15011 6.09658V4.51315" stroke="white" stroke-width="0.681471"/>
<path d="M5.28809 3.14953C5.28809 3.14953 7.40742 2.97707 8.21697 3.24694C8.71406 3.41264 9.27221 3.76723 9.44816 4.40891C9.59743 4.95331 9.44816 5.48838 9.12771 5.89319C8.83687 6.26059 8.56175 6.39268 8.0042 6.52288C7.34179 6.67756 6.02444 6.52288 6.02444 6.52288V4.04377" stroke="white" stroke-width="0.681471"/>
<path d="M4.02126 8.02234C3.34305 8.11848 2.33576 8.36853 1.4989 8.59423C1.08027 8.70714 0.703974 8.81404 0.43233 8.89272C0.300147 8.931 0.192738 8.96261 0.117284 8.98497C0.12245 8.98124 0.127795 8.97739 0.133316 8.97342C0.210743 8.91768 0.322808 8.83796 0.461296 8.74204C0.738292 8.55019 1.12091 8.2936 1.54346 8.03461C1.96606 7.77559 2.42827 7.51438 2.8645 7.31312C3.30132 7.1116 3.70982 6.97129 4.02571 6.95206C5.19372 6.88098 6.0056 7.15978 6.82152 7.4568C6.85093 7.46751 6.88036 7.47825 6.9098 7.48899C7.69747 7.77631 8.50125 8.06951 9.63982 8.06638C10.3919 8.0643 11.5287 7.87394 12.4759 7.68457C12.9499 7.58982 13.3769 7.4952 13.6854 7.42427C13.8397 7.38881 13.9644 7.35926 14.0505 7.33858L14.1217 7.32135C14.1216 7.32146 14.1215 7.32157 14.1214 7.32169C14.0936 7.35421 14.05 7.40164 13.9869 7.46054C13.8608 7.57833 13.6569 7.74208 13.3469 7.92436C12.7269 8.28893 11.6822 8.72777 9.98589 9.02126C9.13872 9.16782 8.51214 9.15486 8.00694 9.05956C7.50176 8.96426 7.1167 8.78642 6.75209 8.6013C6.70127 8.5755 6.65083 8.54954 6.60048 8.52364C6.28998 8.36386 5.98349 8.20615 5.61993 8.10082C5.19671 7.9782 4.6967 7.9266 4.02126 8.02234Z" fill="url(#paint0_angular_425_5173)" stroke="white" stroke-width="0.0442513"/>
<defs>
<radialGradient id="paint0_angular_425_5173" cx="0" cy="0" r="1" gradientUnits="userSpaceOnUse" gradientTransform="translate(7.08944 8.02562) rotate(90) scale(1.12786 7.15598)">
<stop offset="0.385417" stop-color="white"/>
<stop offset="0.510417" stop-color="#6A6A6A"/>
<stop offset="0.546875" stop-color="#6A6A6A"/>
</radialGradient>
</defs>
</svg>
