<svg width="21" height="21" viewBox="0 0 21 21" fill="none" xmlns="http://www.w3.org/2000/svg">
<path d="M9.87099 12.2632C13.4246 12.2632 16.3086 13.6108 16.3086 15.2675V17.4133H3.43336V15.2675C3.43336 13.6108 6.31742 12.2632 9.87099 12.2632ZM15.4503 15.2675C15.4503 14.0829 12.9525 13.1216 9.87099 13.1216C6.78951 13.1216 4.29172 14.0829 4.29172 15.2675V16.555H15.4503V15.2675ZM9.87099 4.53809C10.6678 4.53809 11.4319 4.8546 11.9953 5.418C12.5587 5.98141 12.8752 6.74554 12.8752 7.54231C12.8752 8.33908 12.5587 9.10322 11.9953 9.66662C11.4319 10.23 10.6678 10.5465 9.87099 10.5465C9.07422 10.5465 8.31009 10.23 7.74668 9.66662C7.18328 9.10322 6.86677 8.33908 6.86677 7.54231C6.86677 6.74554 7.18328 5.98141 7.74668 5.418C8.31009 4.8546 9.07422 4.53809 9.87099 4.53809ZM9.87099 5.39644C9.30187 5.39644 8.75606 5.62252 8.35363 6.02495C7.9512 6.42738 7.72512 6.97319 7.72512 7.54231C7.72512 8.11143 7.9512 8.65725 8.35363 9.05968C8.75606 9.46211 9.30187 9.68819 9.87099 9.68819C10.4401 9.68819 10.9859 9.46211 11.3884 9.05968C11.7908 8.65725 12.0169 8.11143 12.0169 7.54231C12.0169 6.97319 11.7908 6.42738 11.3884 6.02495C10.9859 5.62252 10.4401 5.39644 9.87099 5.39644Z" fill="white"/>
</svg>
