<svg width="16" height="17" viewBox="0 0 16 17" fill="none" xmlns="http://www.w3.org/2000/svg">
<path d="M10.6667 12.0213C11.0203 12.0213 11.3594 12.1617 11.6095 12.4118C11.8595 12.6618 12 13.001 12 13.3546C12 13.7082 11.8595 14.0474 11.6095 14.2974C11.3594 14.5475 11.0203 14.6879 10.6667 14.6879C10.3131 14.6879 9.97392 14.5475 9.72388 14.2974C9.47383 14.0474 9.33335 13.7082 9.33335 13.3546C9.33335 13.001 9.47383 12.6618 9.72388 12.4118C9.97392 12.1617 10.3131 12.0213 10.6667 12.0213ZM10.6667 12.6879C10.4899 12.6879 10.3203 12.7582 10.1953 12.8832C10.0703 13.0082 10 13.1778 10 13.3546C10 13.5314 10.0703 13.701 10.1953 13.826C10.3203 13.951 10.4899 14.0213 10.6667 14.0213C10.8435 14.0213 11.0131 13.951 11.1381 13.826C11.2631 13.701 11.3334 13.5314 11.3334 13.3546C11.3334 13.1778 11.2631 13.0082 11.1381 12.8832C11.0131 12.7582 10.8435 12.6879 10.6667 12.6879ZM4.66669 12.0213C5.02031 12.0213 5.35945 12.1617 5.60949 12.4118C5.85954 12.6618 6.00002 13.001 6.00002 13.3546C6.00002 13.7082 5.85954 14.0474 5.60949 14.2974C5.35945 14.5475 5.02031 14.6879 4.66669 14.6879C4.31306 14.6879 3.97393 14.5475 3.72388 14.2974C3.47383 14.0474 3.33335 13.7082 3.33335 13.3546C3.33335 13.001 3.47383 12.6618 3.72388 12.4118C3.97393 12.1617 4.31306 12.0213 4.66669 12.0213ZM4.66669 12.6879C4.48988 12.6879 4.32031 12.7582 4.19528 12.8832C4.07026 13.0082 4.00002 13.1778 4.00002 13.3546C4.00002 13.5314 4.07026 13.701 4.19528 13.826C4.32031 13.951 4.48988 14.0213 4.66669 14.0213C4.8435 14.0213 5.01307 13.951 5.13809 13.826C5.26311 13.701 5.33335 13.5314 5.33335 13.3546C5.33335 13.1778 5.26311 13.0082 5.13809 12.8832C5.01307 12.7582 4.8435 12.6879 4.66669 12.6879ZM12 4.02127H2.84669L4.54669 8.02127H10C10.22 8.02127 10.4134 7.9146 10.5334 7.7546L12.5333 5.08794C12.62 4.9746 12.6667 4.8346 12.6667 4.68794C12.6667 4.51113 12.5964 4.34156 12.4714 4.21653C12.3464 4.09151 12.1768 4.02127 12 4.02127ZM10 8.68794H4.58002L4.06669 9.72794L4.00002 10.0213C4.00002 10.1981 4.07026 10.3676 4.19528 10.4927C4.32031 10.6177 4.48988 10.6879 4.66669 10.6879H12V11.3546H4.66669C4.31306 11.3546 3.97393 11.2141 3.72388 10.9641C3.47383 10.714 3.33335 10.3749 3.33335 10.0213C3.33315 9.79507 3.39051 9.57253 3.50002 9.3746L3.98002 8.3946L1.56002 2.68794H0.666687V2.02127H2.00002L2.56669 3.3546H12C12.3536 3.3546 12.6928 3.49508 12.9428 3.74513C13.1929 3.99518 13.3334 4.33431 13.3334 4.68794C13.3334 5.02127 13.22 5.30127 13.0333 5.52794L11.0934 8.12127C10.8534 8.46127 10.4534 8.68794 10 8.68794Z" fill="white"/>
</svg>
