<svg width="30" height="30" viewBox="0 0 30 30" fill="none" xmlns="http://www.w3.org/2000/svg">
<path d="M9.51875 25C8.96042 25 8.48417 24.8033 8.09 24.41C7.69667 24.0166 7.5 23.5404 7.5 22.9812V7.49998H6.25V6.24998H11.25V5.28748H18.75V6.24998H23.75V7.49998H22.5V22.9812C22.5 23.5562 22.3075 24.0362 21.9225 24.4212C21.5367 24.8071 21.0563 25 20.4813 25H9.51875ZM21.25 7.49998H8.75V22.9812C8.75 23.2054 8.82208 23.3896 8.96625 23.5337C9.11042 23.6779 9.29458 23.75 9.51875 23.75H20.4813C20.6729 23.75 20.8492 23.67 21.01 23.51C21.17 23.3491 21.25 23.1729 21.25 22.9812V7.49998ZM12.26 21.25H13.51V9.99998H12.26V21.25ZM16.49 21.25H17.74V9.99998H16.49V21.25Z" fill="black"/>
</svg>
