<svg width="20" height="27" viewBox="0 0 17 17" fill="none" xmlns="http://www.w3.org/2000/svg">
<g clip-path="url(#clip0_445_10396)">
<path d="M8.93125 3.60856C8.45284 3.60856 7.99402 3.41851 7.65573 3.08022C7.31743 2.74193 7.12738 2.28311 7.12738 1.80469C7.12738 1.32628 7.31743 0.867455 7.65573 0.529164C7.99402 0.190874 8.45284 0.000823975 8.93125 0.000823975C9.40967 0.000823975 9.86849 0.190874 10.2068 0.529164C10.5451 0.867455 10.7351 1.32628 10.7351 1.80469C10.7351 2.28311 10.5451 2.74193 10.2068 3.08022C9.86849 3.41851 9.40967 3.60856 8.93125 3.60856ZM14.8858 3.60856C14.4074 3.60856 13.9486 3.41851 13.6103 3.08022C13.272 2.74193 13.0819 2.28311 13.0819 1.80469C13.0819 1.32628 13.272 0.867455 13.6103 0.529164C13.9486 0.190874 14.4074 0.000823975 14.8858 0.000823975C15.3642 0.000823975 15.823 0.190874 16.1613 0.529164C16.4996 0.867455 16.6897 1.32628 16.6897 1.80469C16.6897 2.28311 16.4996 2.74193 16.1613 3.08022C15.823 3.41851 15.3642 3.60856 14.8858 3.60856ZM2.43581 3.60856C1.95739 3.60856 1.49857 3.41851 1.16028 3.08022C0.821992 2.74193 0.631943 2.28311 0.631943 1.80469C0.631943 1.32628 0.821992 0.867455 1.16028 0.529164C1.49857 0.190874 1.95739 0.000823975 2.43581 0.000823975C2.91422 0.000823975 3.37305 0.190874 3.71134 0.529164C4.04963 0.867455 4.23968 1.32628 4.23968 1.80469C4.23968 2.28311 4.04963 2.74193 3.71134 3.08022C3.37305 3.41851 2.91422 3.60856 2.43581 3.60856ZM8.93125 10.104C8.69436 10.104 8.4598 10.0573 8.24094 9.96669C8.02209 9.87604 7.82323 9.74316 7.65573 9.57566C7.48822 9.40815 7.35535 9.2093 7.2647 8.99044C7.17404 8.77159 7.12738 8.53702 7.12738 8.30013C7.12738 8.06325 7.17404 7.82868 7.2647 7.60982C7.35535 7.39097 7.48822 7.19211 7.65573 7.02461C7.82323 6.8571 8.02209 6.72423 8.24094 6.63358C8.4598 6.54292 8.69436 6.49627 8.93125 6.49627C9.40967 6.49627 9.86849 6.68632 10.2068 7.02461C10.5451 7.3629 10.7351 7.82172 10.7351 8.30013C10.7351 8.77855 10.5451 9.23737 10.2068 9.57566C9.86849 9.91395 9.40967 10.104 8.93125 10.104ZM14.8858 10.104C14.6489 10.104 14.4144 10.0573 14.1955 9.96669C13.9766 9.87604 13.7778 9.74316 13.6103 9.57566C13.4428 9.40815 13.3099 9.2093 13.2193 8.99044C13.1286 8.77159 13.0819 8.53702 13.0819 8.30013C13.0819 8.06325 13.1286 7.82868 13.2193 7.60982C13.3099 7.39097 13.4428 7.19211 13.6103 7.02461C13.7778 6.8571 13.9766 6.72423 14.1955 6.63358C14.4144 6.54292 14.6489 6.49627 14.8858 6.49627C15.3642 6.49627 15.823 6.68632 16.1613 7.02461C16.4996 7.3629 16.6897 7.82172 16.6897 8.30013C16.6897 8.77855 16.4996 9.23737 16.1613 9.57566C15.823 9.91395 15.3642 10.104 14.8858 10.104ZM2.43581 10.104C2.19892 10.104 1.96435 10.0573 1.7455 9.96669C1.52664 9.87604 1.32779 9.74316 1.16028 9.57566C0.992779 9.40815 0.859907 9.2093 0.769254 8.99044C0.678601 8.77159 0.631943 8.53702 0.631943 8.30013C0.631943 8.06325 0.678601 7.82868 0.769254 7.60982C0.859907 7.39097 0.992779 7.19211 1.16028 7.02461C1.32779 6.8571 1.52664 6.72423 1.7455 6.63358C1.96435 6.54292 2.19892 6.49627 2.43581 6.49627C2.91422 6.49627 3.37305 6.68632 3.71134 7.02461C4.04963 7.3629 4.23968 7.82172 4.23968 8.30013C4.23968 8.77855 4.04963 9.23737 3.71134 9.57566C3.37305 9.91395 2.91422 10.104 2.43581 10.104ZM8.93125 16.5994C8.69436 16.5994 8.4598 16.5528 8.24094 16.4621C8.02209 16.3715 7.82323 16.2386 7.65573 16.0711C7.48822 15.9036 7.35535 15.7047 7.2647 15.4859C7.17404 15.267 7.12738 15.0325 7.12738 14.7956C7.12738 14.5587 7.17404 14.3241 7.2647 14.1053C7.35535 13.8864 7.48822 13.6876 7.65573 13.52C7.82323 13.3525 8.02209 13.2197 8.24094 13.129C8.4598 13.0384 8.69436 12.9917 8.93125 12.9917C9.40976 12.9917 9.86867 13.1818 10.207 13.5202C10.5454 13.8585 10.7355 14.3174 10.7355 14.7959C10.7355 15.2744 10.5454 15.7333 10.207 16.0717C9.86867 16.41 9.40976 16.5994 8.93125 16.5994ZM14.8858 16.5994C14.6489 16.5994 14.4144 16.5528 14.1955 16.4621C13.9766 16.3715 13.7778 16.2386 13.6103 16.0711C13.4428 15.9036 13.3099 15.7047 13.2193 15.4859C13.1286 15.267 13.0819 15.0325 13.0819 14.7956C13.0819 14.5587 13.1286 14.3241 13.2193 14.1053C13.3099 13.8864 13.4428 13.6876 13.6103 13.52C13.7778 13.3525 13.9766 13.2197 14.1955 13.129C14.4144 13.0384 14.6489 12.9917 14.8858 12.9917C15.3642 12.9917 15.823 13.1818 16.1613 13.52C16.4996 13.8583 16.6897 14.3172 16.6897 14.7956C16.6897 15.274 16.4996 15.7328 16.1613 16.0711C15.823 16.4094 15.3642 16.5994 14.8858 16.5994ZM2.43581 16.5994C2.19892 16.5994 1.96435 16.5528 1.7455 16.4621C1.52664 16.3715 1.32779 16.2386 1.16028 16.0711C0.992779 15.9036 0.859907 15.7047 0.769254 15.4859C0.678601 15.267 0.631943 15.0325 0.631943 14.7956C0.631943 14.5587 0.678601 14.3241 0.769254 14.1053C0.859907 13.8864 0.992779 13.6876 1.16028 13.52C1.32779 13.3525 1.52664 13.2197 1.7455 13.129C1.96435 13.0384 2.19892 12.9917 2.43581 12.9917C2.91422 12.9917 3.37305 13.1818 3.71134 13.52C4.04963 13.8583 4.23968 14.3172 4.23968 14.7956C4.23968 15.274 4.04963 15.7328 3.71134 16.0711C3.37305 16.4094 2.91422 16.5994 2.43581 16.5994Z" fill="white"/>
</g>
<defs>
<clipPath id="clip0_445_10396">
<rect width="15.9111" height="16.6" fill="white" transform="translate(0.629456)"/>
</clipPath>
</defs>
</svg>
