<svg width="19" height="19" viewBox="0 0 19 19" fill="none" xmlns="http://www.w3.org/2000/svg">
<path d="M15.9454 11.5547L12.634 10.0707C12.4839 10.0065 12.3202 9.98061 12.1577 9.99554C11.9951 10.0105 11.8389 10.0657 11.7031 10.1563C11.6893 10.1651 11.6762 10.175 11.6638 10.1857L9.9331 11.6578C9.91515 11.6675 9.89516 11.673 9.87472 11.6738C9.85428 11.6745 9.83395 11.6704 9.81534 11.662C8.70289 11.125 7.55049 9.97962 7.01144 8.88259C7.00246 8.86426 6.99779 8.84412 6.99779 8.82371C6.99779 8.8033 7.00246 8.78316 7.01144 8.76483L8.48839 7.01239C8.49899 6.99942 8.50882 6.98585 8.51783 6.97173C8.60713 6.8354 8.66107 6.67897 8.67477 6.51657C8.68848 6.35417 8.66152 6.19091 8.59634 6.04154L7.12289 2.73573C7.03921 2.54059 6.8945 2.37785 6.71048 2.27193C6.52645 2.16601 6.31304 2.12264 6.10227 2.14832C5.18625 2.26874 4.34542 2.71859 3.73691 3.41379C3.1284 4.10899 2.79385 5.00198 2.79577 5.92588C2.79577 11.4145 7.26098 15.8797 12.7496 15.8797C13.6735 15.8815 14.5664 15.5469 15.2616 14.9384C15.9567 14.3299 16.4066 13.4892 16.5272 12.5732C16.5528 12.3634 16.51 12.151 16.4052 11.9675C16.3004 11.784 16.1391 11.6392 15.9454 11.5547ZM12.7496 15.0386C7.72503 15.0386 3.63694 10.9505 3.63694 5.92588C3.63459 5.20663 3.8942 4.51112 4.36725 3.96932C4.84029 3.42751 5.49442 3.07647 6.20742 2.98178H6.22354C6.25179 2.9823 6.27922 2.99135 6.30223 3.00774C6.32525 3.02413 6.34278 3.04708 6.35252 3.0736L7.83158 6.3759C7.84001 6.39426 7.84438 6.41423 7.84438 6.43443C7.84438 6.45464 7.84001 6.47461 7.83158 6.49297L6.35182 8.24961C6.34078 8.26215 6.3307 8.27551 6.32167 8.28957C6.22908 8.43092 6.17455 8.5938 6.16338 8.76241C6.1522 8.93102 6.18476 9.09967 6.25789 9.25201C6.87965 10.525 8.16244 11.798 9.44943 12.4197C9.60266 12.4924 9.77212 12.5242 9.94129 12.5119C10.1105 12.4996 10.2736 12.4437 10.4147 12.3496C10.428 12.3405 10.4413 12.3307 10.4539 12.3202L12.1839 10.8481C12.201 10.8389 12.2199 10.8336 12.2392 10.8324C12.2586 10.8312 12.278 10.8341 12.2961 10.8411L15.6082 12.3251C15.6353 12.3366 15.658 12.3563 15.6732 12.3815C15.6884 12.4067 15.6954 12.436 15.693 12.4653C15.5988 13.1786 15.2481 13.8332 14.7064 14.3068C14.1647 14.7804 13.4691 15.0405 12.7496 15.0386Z" fill="#5A0001"/>
</svg>
