<svg width="38" height="37" viewBox="0 0 38 37" fill="none" xmlns="http://www.w3.org/2000/svg">
<path d="M32.5267 23.1683L25.699 20.1086C25.3897 19.976 25.0521 19.9227 24.717 19.9535C24.3818 19.9843 24.0597 20.0982 23.7796 20.2849C23.7512 20.3031 23.7242 20.3234 23.6987 20.3456L20.1302 23.3808C20.0932 23.4009 20.052 23.4122 20.0099 23.4137C19.9677 23.4152 19.9258 23.4069 19.8874 23.3894C17.5937 22.2823 15.2176 19.9207 14.1062 17.6588C14.0877 17.621 14.078 17.5794 14.078 17.5374C14.078 17.4953 14.0877 17.4537 14.1062 17.4159L17.1514 13.8027C17.1733 13.7759 17.1936 13.7479 17.2121 13.7188C17.3963 13.4377 17.5075 13.1152 17.5357 12.7804C17.564 12.4455 17.5084 12.1089 17.374 11.8009L14.336 4.98481C14.1634 4.58245 13.8651 4.2469 13.4856 4.02851C13.1062 3.81013 12.6662 3.7207 12.2316 3.77364C10.3429 4.02194 8.60924 4.94946 7.35457 6.38286C6.09991 7.81627 5.4101 9.65748 5.41406 11.5624C5.41406 22.8792 14.6207 32.0859 25.9375 32.0859C27.8424 32.0895 29.6834 31.3996 31.1167 30.145C32.5501 28.8904 33.4777 27.1569 33.7263 25.2683C33.7791 24.8358 33.6909 24.3977 33.4748 24.0194C33.2586 23.641 32.9261 23.3425 32.5267 23.1683ZM25.9375 30.3515C15.5775 30.3515 7.14844 21.9224 7.14844 11.5624C7.14361 10.0794 7.67887 8.64541 8.65423 7.52829C9.62959 6.41116 10.9783 5.68736 12.4484 5.49212H12.4816C12.5399 5.49321 12.5964 5.51186 12.6439 5.54565C12.6914 5.57944 12.7275 5.62677 12.7476 5.68145L15.7972 12.4903C15.8146 12.5282 15.8236 12.5693 15.8236 12.611C15.8236 12.6527 15.8146 12.6938 15.7972 12.7317L12.7461 16.3536C12.7234 16.3795 12.7026 16.407 12.684 16.436C12.4931 16.7275 12.3806 17.0633 12.3576 17.411C12.3346 17.7586 12.4017 18.1063 12.5525 18.4204C13.8345 21.0451 16.4794 23.6698 19.133 24.9518C19.4489 25.1018 19.7983 25.1673 20.1471 25.1419C20.4959 25.1166 20.8322 25.0013 21.1232 24.8073C21.1506 24.7885 21.1781 24.7682 21.2041 24.7466L24.7711 21.7114C24.8064 21.6925 24.8453 21.6814 24.8852 21.6789C24.9251 21.6764 24.9651 21.6826 25.0024 21.697L31.8315 24.7567C31.8873 24.7804 31.9342 24.8211 31.9656 24.873C31.9969 24.9249 32.0112 24.9853 32.0064 25.0457C31.8122 26.5165 31.089 27.8662 29.9721 28.8427C28.8553 29.8191 27.421 30.3555 25.9375 30.3515Z" fill="white"/>
</svg>
