<svg width="15" height="14" viewBox="0 0 15 14" fill="none" xmlns="http://www.w3.org/2000/svg">
<g clip-path="url(#clip0_425_7582)">
<path d="M1.92267 5.93623L1.20383 12.4039L2.12224 12.5065L2.84108 6.03786L1.92267 5.93623ZM2.58145 13.9433H11.6048V13.0193H2.58145V13.9433ZM12.9825 12.4039L12.2636 5.93623L11.3452 6.03786L12.0641 12.5065L12.9825 12.4039ZM10.8851 4.70366H3.30122V5.62762H10.8869L10.8851 4.70366ZM12.2636 5.93623C12.2259 5.59727 12.0645 5.28413 11.8103 5.05672C11.5561 4.82932 11.2261 4.70361 10.8851 4.70366L10.886 5.62762C10.9997 5.62761 11.1095 5.66956 11.1942 5.74543C11.2789 5.82129 11.3327 5.92574 11.3452 6.03879L12.2636 5.93623ZM11.6048 13.9433C11.7997 13.9432 11.9924 13.902 12.1703 13.8223C12.3482 13.7427 12.5073 13.6265 12.6372 13.4812C12.7671 13.336 12.8649 13.165 12.9243 12.9793C12.9836 12.7937 13.004 12.5976 12.9825 12.4039L12.0641 12.5065C12.0713 12.5711 12.0649 12.6357 12.0451 12.6976C12.0254 12.7596 11.9928 12.8167 11.9494 12.8652C11.9061 12.9137 11.853 12.9525 11.7936 12.9791C11.7342 13.0056 11.6699 13.0193 11.6048 13.0193V13.9433ZM1.20383 12.4039C1.18225 12.5977 1.2018 12.7938 1.26119 12.9795C1.32059 13.1652 1.41849 13.3363 1.54851 13.4816C1.67852 13.6269 1.83773 13.7431 2.01572 13.8226C2.19371 13.9022 2.38649 13.9433 2.58145 13.9433V13.0193C2.51649 13.0193 2.45226 13.0056 2.39296 12.9791C2.33365 12.9526 2.2806 12.9139 2.23726 12.8655C2.19393 12.8171 2.16129 12.7601 2.14147 12.6983C2.12165 12.6364 2.1151 12.5711 2.12224 12.5065L1.20383 12.4039ZM2.84108 6.03786C2.8538 5.92499 2.90767 5.82076 2.99237 5.74508C3.07708 5.6694 3.18763 5.62759 3.30122 5.62762V4.70366C2.96032 4.70384 2.63053 4.82965 2.37656 5.05703C2.12258 5.28442 1.96039 5.59743 1.92267 5.93623L2.84108 6.03786ZM4.78325 3.7797V3.31772H3.85929V3.7797H4.78325ZM9.40305 3.31772V3.7797H10.327V3.31772H9.40305ZM7.09315 1.00782C7.70577 1.00782 8.2933 1.25119 8.72649 1.68438C9.15968 2.11757 9.40305 2.7051 9.40305 3.31772H10.327C10.327 2.46005 9.9863 1.6375 9.37983 1.03104C8.77337 0.424572 7.95082 0.0838623 7.09315 0.0838623V1.00782ZM4.78325 3.31772C4.78325 2.7051 5.02661 2.11757 5.4598 1.68438C5.89299 1.25119 6.48052 1.00782 7.09315 1.00782V0.0838623C6.23547 0.0838623 5.41293 0.424572 4.80646 1.03104C4.2 1.6375 3.85929 2.46005 3.85929 3.31772H4.78325Z" fill="black"/>
</g>
<defs>
<clipPath id="clip0_425_7582">
<rect width="13.8594" height="13.8594" fill="white" transform="translate(0.163574 0.0838623)"/>
</clipPath>
</defs>
</svg>
