<svg width="18" height="18" viewBox="0 0 18 18" fill="none" xmlns="http://www.w3.org/2000/svg">
<path d="M8.625 10.5C11.73 10.5 14.25 11.6775 14.25 13.125V15H3V13.125C3 11.6775 5.52 10.5 8.625 10.5ZM13.5 13.125C13.5 12.09 11.3175 11.25 8.625 11.25C5.9325 11.25 3.75 12.09 3.75 13.125V14.25H13.5V13.125ZM8.625 3.75C9.32119 3.75 9.98887 4.02656 10.4812 4.51884C10.9734 5.01113 11.25 5.67881 11.25 6.375C11.25 7.07119 10.9734 7.73887 10.4812 8.23116C9.98887 8.72344 9.32119 9 8.625 9C7.92881 9 7.26113 8.72344 6.76884 8.23116C6.27656 7.73887 6 7.07119 6 6.375C6 5.67881 6.27656 5.01113 6.76884 4.51884C7.26113 4.02656 7.92881 3.75 8.625 3.75ZM8.625 4.5C8.12772 4.5 7.65081 4.69754 7.29917 5.04917C6.94754 5.40081 6.75 5.87772 6.75 6.375C6.75 6.87228 6.94754 7.34919 7.29917 7.70083C7.65081 8.05246 8.12772 8.25 8.625 8.25C9.12228 8.25 9.59919 8.05246 9.95083 7.70083C10.3025 7.34919 10.5 6.87228 10.5 6.375C10.5 5.87772 10.3025 5.40081 9.95083 5.04917C9.59919 4.69754 9.12228 4.5 8.625 4.5Z" fill="white"/>
</svg>
