<svg width="53" height="53" viewBox="0 0 53 53" fill="none" xmlns="http://www.w3.org/2000/svg">
<path opacity="0.3" d="M0.439999 2.66855V0C20.2534 0 36.8693 13.7217 41.4981 32.2523C45.2106 32.6259 48.4124 35.2529 49.4557 38.9046L49.7255 39.8436C50.018 40.0326 50.2964 40.2428 50.5586 40.4726C51.324 41.1409 51.9382 41.9672 52.3594 42.8956C52.7806 43.824 52.9991 44.8329 53 45.8538C52.9992 47.3607 52.5253 48.8286 51.6463 50.0471C50.7672 51.2656 49.5281 52.1722 48.1067 52.6369C47.3859 52.878 46.6314 53.0006 45.872 53H25.561C24.9487 53 24.3259 52.9284 23.7109 52.7845C19.9634 51.9214 17.3415 48.6195 17.3415 44.7576C17.3415 43.1261 17.8435 41.5661 18.7142 40.2411C17.5132 31.1322 9.80181 24.0991 0.439999 24.0991V21.3572C10.4912 21.3572 18.8842 28.4248 21.0523 37.895C21.1907 37.804 21.3203 37.7033 21.464 37.6194C21.5864 37.5488 21.7105 37.4814 21.8363 37.4171L21.8354 37.3588C21.8352 36.123 22.0794 34.8996 22.5537 33.7601C19.0322 24.9268 10.4597 18.6887 0.439999 18.6887V16.0184C10.9266 16.0184 19.9687 22.1752 24.2549 31.0907C24.8655 30.4123 25.5708 29.8273 26.3486 29.354C21.5253 19.8573 11.7474 13.348 0.439999 13.348V10.6795C12.8433 10.6795 23.5638 17.8575 28.7961 28.3082C29.5739 28.0982 30.3754 27.9904 31.1806 27.9875C31.3269 27.9875 31.4688 28.0078 31.6133 28.0149C26.1278 16.1968 14.237 8.0083 0.439999 8.0083V5.33975C16.0048 5.33975 29.3077 15.0193 34.7976 28.7295C36.3107 29.3698 37.6299 30.4008 38.6222 31.7187C33.8839 14.9495 18.5916 2.66855 0.439999 2.66855ZM33.8112 40.4673L33.8103 40.4266C33.8103 37.7307 35.1892 35.3581 37.2784 33.9739C36.6725 32.8799 35.7877 31.9689 34.7157 31.3352C33.6437 30.7014 32.4233 30.3679 31.1806 30.369C27.3323 30.369 24.2138 33.4995 24.2138 37.3579C24.2138 37.5461 24.226 37.7289 24.2409 37.9118C25.8004 38.0302 27.281 38.6501 28.465 39.6802C27.24 38.9716 25.8018 38.735 24.417 39.0142C23.7962 39.139 23.1998 39.3648 22.651 39.6829C20.9007 40.6952 19.7181 42.5855 19.7181 44.7576C19.7181 47.5392 21.6541 49.8668 24.2488 50.4648C24.6702 50.562 25.1073 50.6185 25.5602 50.6185H45.872C46.3777 50.6178 46.88 50.5361 47.3603 50.3765C49.2542 49.7484 50.6225 47.9623 50.6225 45.8547C50.6225 44.4211 49.9901 43.1393 48.9932 42.2666C48.1268 41.5091 47.0195 41.0907 45.8729 41.0874C44.3407 41.0874 42.9821 41.817 42.1122 42.9468L42.0701 42.9459C42.5811 42.004 43.3133 41.2029 44.2026 40.6126C45.0919 40.0223 46.1111 39.6609 47.1711 39.5601C46.7566 38.1233 45.8906 36.8611 44.7034 35.9634C43.5161 35.0657 42.0719 34.5811 40.588 34.5825C40.2533 34.5825 39.9283 34.6143 39.6086 34.6611C38.1506 34.8691 36.7983 35.5468 35.7535 36.5932C34.7087 37.6395 34.0274 38.9985 33.8112 40.4673Z" fill="#DAB277"/>
</svg>
