<svg width="53" height="53" viewBox="0 0 53 53" fill="none" xmlns="http://www.w3.org/2000/svg">
<path opacity="0.3" d="M52.5625 2.64652V0C32.7482 0 16.1314 13.6084 11.5024 31.986C7.78976 32.3566 4.58783 34.9619 3.54446 38.5835L3.27464 39.5147C2.98213 39.7021 2.70369 39.9106 2.44153 40.1385C1.67604 40.8012 1.06189 41.6208 0.640655 42.5415C0.219421 43.4623 0.000939191 44.4628 0 45.4753C0.000792627 46.9697 0.474702 48.4255 1.35379 49.634C2.23288 50.8424 3.47202 51.7416 4.89357 52.2024C5.61437 52.4415 6.36893 52.5631 7.12835 52.5625H27.4403C28.0526 52.5625 28.6755 52.4915 29.2905 52.3487C33.0382 51.4929 35.6602 48.2182 35.6602 44.3882C35.6602 42.7701 35.1582 41.223 34.2874 39.909C35.4884 30.8752 43.2002 23.9002 52.5625 23.9002V21.1809C42.5108 21.1809 34.1174 28.1901 31.9492 37.5822C31.8108 37.492 31.6812 37.3921 31.5375 37.3089C31.4151 37.2389 31.2909 37.172 31.1652 37.1082L31.1661 37.0504C31.1663 35.8248 30.9221 34.6115 30.4477 33.4814C33.9694 24.721 42.5423 18.5344 52.5625 18.5344V15.8861C42.0754 15.8861 33.0329 21.9921 28.7464 30.834C28.1359 30.1613 27.4305 29.5811 26.6527 29.1117C31.4762 19.6934 41.2546 13.2379 52.5625 13.2379V10.5913C40.1586 10.5913 29.4376 17.7101 24.205 28.0745C23.4272 27.8662 22.6257 27.7594 21.8204 27.7565C21.6741 27.7565 21.5322 27.7767 21.3877 27.7837C26.8735 16.0631 38.7648 7.94219 52.5625 7.94219V5.29567C36.997 5.29567 23.6934 14.8953 18.2033 28.4924C16.69 29.1274 15.3708 30.1499 14.3785 31.4569C19.117 14.8261 34.41 2.64652 52.5625 2.64652ZM19.1897 40.1332L19.1906 40.0929C19.1906 37.4192 17.8117 35.0662 15.7223 33.6934C16.3283 32.6085 17.2131 31.705 18.2852 31.0765C19.3572 30.448 20.5777 30.1172 21.8204 30.1183C25.6689 30.1183 28.7876 33.223 28.7876 37.0496C28.7876 37.2361 28.7753 37.4175 28.7604 37.5988C27.2009 37.7163 25.7203 38.331 24.5362 39.3527C25.7612 38.6499 27.1995 38.4153 28.5844 38.6921C29.2052 38.8159 29.8017 39.0399 30.3505 39.3553C32.1008 40.3592 33.2835 42.234 33.2835 44.3882C33.2835 47.1468 31.3474 49.4552 28.7526 50.0483C28.3312 50.1446 27.894 50.2007 27.4411 50.2007H7.12835C6.62264 50.2 6.12025 50.1189 5.63996 49.9607C3.74595 49.3378 2.37758 47.5664 2.37758 45.4762C2.37758 44.0544 3.01008 42.7832 4.00701 41.9177C4.87339 41.1665 5.98077 40.7515 7.12747 40.7482C8.65967 40.7482 10.0184 41.4718 10.8883 42.5923L10.9304 42.5914C10.4194 41.6573 9.68719 40.8627 8.79785 40.2773C7.90851 39.6919 6.88919 39.3335 5.82918 39.2335C6.24369 37.8086 7.10975 36.5568 8.29704 35.6665C9.48433 34.7763 10.9286 34.2957 12.4126 34.297C12.7473 34.297 13.0723 34.3286 13.392 34.375C14.8501 34.5812 16.2025 35.2534 17.2473 36.2911C18.2922 37.3288 18.9735 38.6766 19.1897 40.1332Z" fill="#DAB277"/>
</svg>
