<svg width="12" height="12" viewBox="0 0 12 12" fill="none" xmlns="http://www.w3.org/2000/svg">
<path d="M4.68164 5.34167L6.1377 6.43394C6.2279 6.50159 6.34035 6.53264 6.45249 6.52087C6.56463 6.5091 6.66818 6.45538 6.74237 6.37047L9.59773 3.10709" stroke="white" stroke-width="0.893834" stroke-linecap="round"/>
<path d="M10.0445 6.2355C10.0445 7.07594 9.78127 7.89528 9.29174 8.57843C8.80221 9.26158 8.11098 9.77423 7.31515 10.0444C6.51931 10.3145 5.65884 10.3286 4.85459 10.0846C4.05035 9.84063 3.34273 9.35086 2.83112 8.68408C2.31951 8.01731 2.02962 7.20702 2.00215 6.36703C1.97468 5.52704 2.21103 4.69954 2.67798 4.00077C3.14494 3.30199 3.81905 2.76704 4.60564 2.47104C5.39223 2.17505 6.25178 2.13288 7.06357 2.35046" stroke="white" stroke-width="0.893834" stroke-linecap="round"/>
</svg>
